<?xml version="1.0" encoding="utf-8"?>
<!-- Generator: Adobe Illustrator 21.0.0, SVG Export Plug-In . SVG Version: 6.00 Build 0)  -->
<svg version="1.1" id="레이어_1" xmlns="http://www.w3.org/2000/svg" xmlns:xlink="http://www.w3.org/1999/xlink" x="0px"
	 y="0px" viewBox="0 0 1804.3 322.7" style="enable-background:new 0 0 1804.3 322.7;" xml:space="preserve">
<style type="text/css">
	.st0{display:none;}
	.st1{display:inline;}
	.st2{clip-path:url(#SVGID_2_);}
	.st3{fill:url(#SVGID_3_);}
	.st4{fill:url(#SVGID_4_);}
	.st5{fill:url(#SVGID_5_);}
	.st6{fill:url(#SVGID_6_);}
	.st7{fill:#FFFFFF;stroke:url(#SVGID_7_);stroke-width:4;stroke-miterlimit:10;}
	.st8{fill:#FFFFFF;stroke:url(#SVGID_8_);stroke-width:4;stroke-miterlimit:10;}
	.st9{fill:none;}
	.st10{fill:url(#SVGID_9_);}
	.st11{fill:url(#SVGID_10_);}
	.st12{fill:url(#SVGID_11_);}
	.st13{fill:url(#SVGID_12_);}
	.st14{fill:#FFFFFF;}
	.st15{fill:url(#SVGID_13_);}
	.st16{fill:url(#SVGID_14_);}
</style>
<g id="레이어_1_2_" class="st0">
	<g id="레이어_1_1_" class="st1">
		<g>
			<g>
				<g>
					<g>
						<defs>
							<rect id="SVGID_1_" x="46.4" y="718" width="1430" height="300"/>
						</defs>
						<clipPath id="SVGID_2_">
							<use xlink:href="#SVGID_1_"  style="overflow:visible;"/>
						</clipPath>
						<g class="st2">
							
								<linearGradient id="SVGID_3_" gradientUnits="userSpaceOnUse" x1="1495" y1="-5344.0498" x2="9.3" y2="-5344.0498" gradientTransform="matrix(1 0 0 -1 0 -4476)">
								<stop  offset="0" style="stop-color:#FEE4A6"/>
								<stop  offset="1.908112e-02" style="stop-color:#FEE2A6"/>
								<stop  offset="0.4204" style="stop-color:#FFC4A6"/>
								<stop  offset="0.7615" style="stop-color:#FFB1A6"/>
								<stop  offset="1" style="stop-color:#FFAAA6"/>
							</linearGradient>
							<rect x="9.3" y="706.7" class="st3" width="1485.7" height="322.7"/>
							<g>
								
									<linearGradient id="SVGID_4_" gradientUnits="userSpaceOnUse" x1="970.1707" y1="-5143.7969" x2="751.2293" y2="-5270.2031" gradientTransform="matrix(1 0 0 -1 0 -4476)">
									<stop  offset="0" style="stop-color:#F9C4AA"/>
									<stop  offset="1" style="stop-color:#FEE9B8"/>
								</linearGradient>
								<path class="st4" d="M860.7,605c-69.9,0-126.5,56.4-126.5,126s56.6,126,126.5,126s126.5-56.4,126.5-126S930.6,605,860.7,605
									z M860.7,826.4c-53,0-95.9-42.7-95.9-95.4s42.9-95.4,95.9-95.4c52.9,0,95.9,42.7,95.9,95.4S913.7,826.4,860.7,826.4z"/>
								
									<linearGradient id="SVGID_5_" gradientUnits="userSpaceOnUse" x1="1458.3732" y1="-5459.5522" x2="1340.6432" y2="-5255.6382" gradientTransform="matrix(1 0 0 -1 0 -4476)">
									<stop  offset="0" style="stop-color:#F9C4AA"/>
									<stop  offset="1" style="stop-color:#FEE9B8"/>
								</linearGradient>
								<path class="st5" d="M1399.5,764c-65.2,0-118.1,52.7-118.1,117.6c0,65,52.9,117.6,118.1,117.6s118.1-52.7,118.1-117.6
									C1517.6,816.6,1464.8,764,1399.5,764z M1399.5,970.7c-49.4,0-89.5-39.9-89.5-89.1s40.1-89.1,89.5-89.1s89.5,39.9,89.5,89.1
									S1448.9,970.7,1399.5,970.7z"/>
								
									<linearGradient id="SVGID_6_" gradientUnits="userSpaceOnUse" x1="1118.933" y1="-5465.4292" x2="821.4834" y2="-5637.1616" gradientTransform="matrix(1 0 0 -1 0 -4476)">
									<stop  offset="0" style="stop-color:#F9C4AA"/>
									<stop  offset="1" style="stop-color:#FEE9B8"/>
								</linearGradient>
								<path class="st6" d="M970.2,904.2c-94.9,0-171.9,76.6-171.9,171.1s77,171.1,171.9,171.1s171.9-76.6,171.9-171.1
									C1142.1,980.8,1065.2,904.2,970.2,904.2z M970.2,1205c-71.9,0-130.3-58.1-130.3-129.7s58.3-129.7,130.3-129.7
									s130.3,58.1,130.3,129.7C1100.5,1147,1042.2,1205,970.2,1205z"/>
							</g>
							<g>
								
									<linearGradient id="SVGID_7_" gradientUnits="userSpaceOnUse" x1="1152.3" y1="-5375.1499" x2="1328" y2="-5375.1499" gradientTransform="matrix(1 0 0 -1 0 -4476)">
									<stop  offset="0" style="stop-color:#FEE4A6"/>
									<stop  offset="1.908112e-02" style="stop-color:#FEE2A6"/>
									<stop  offset="0.4204" style="stop-color:#FFC4A6"/>
									<stop  offset="0.7615" style="stop-color:#FFB1A6"/>
									<stop  offset="1" style="stop-color:#FFAAA6"/>
								</linearGradient>
								<path class="st7" d="M1167.5,872.6h145.3c7.3,0,13.2,5.8,13.2,13.1v26.9c0,7.2-5.8,13.1-13.2,13.1h-145.3
									c-7.3,0-13.2-5.8-13.2-13.1v-26.9C1154.4,878.5,1160.2,872.6,1167.5,872.6z"/>
								
									<linearGradient id="SVGID_8_" gradientUnits="userSpaceOnUse" x1="942.2" y1="-5416.4502" x2="1328" y2="-5416.4502" gradientTransform="matrix(1 0 0 -1 0 -4476)">
									<stop  offset="0" style="stop-color:#FEE4A6"/>
									<stop  offset="1.908112e-02" style="stop-color:#FEE2A6"/>
									<stop  offset="0.4204" style="stop-color:#FFC4A6"/>
									<stop  offset="0.7615" style="stop-color:#FFB1A6"/>
									<stop  offset="1" style="stop-color:#FFAAA6"/>
								</linearGradient>
								<path class="st8" d="M944.3,1021.5H1326V912.7c0-9.1-7.3-16.4-16.5-16.4h-127.2v-20.5c0-9.1-7.3-16.4-16.5-16.4H960.7
									c-9.1,0-16.5,7.3-16.5,16.4L944.3,1021.5L944.3,1021.5z"/>
							</g>
							<rect x="-198.8" y="718" class="st9" width="1921.5" height="300"/>
						</g>
					</g>
				</g>
			</g>
		</g>
	</g>
	<g id="레이어_2" class="st1">
	</g>
</g>
<g id="레이어_2_1_">
	<rect x="196.4" y="11.3" class="st9" width="1430" height="300"/>
	
		<linearGradient id="SVGID_9_" gradientUnits="userSpaceOnUse" x1="1804.3" y1="-4637.3501" x2="0" y2="-4637.3501" gradientTransform="matrix(1 0 0 -1 0 -4476)">
		<stop  offset="0" style="stop-color:#FEE4A6"/>
		<stop  offset="1.908112e-02" style="stop-color:#FEE2A6"/>
		<stop  offset="0.4204" style="stop-color:#FFC4A6"/>
		<stop  offset="0.7615" style="stop-color:#FFB1A6"/>
		<stop  offset="1" style="stop-color:#FFAAA6"/>
	</linearGradient>
	<rect class="st10" width="1804.3" height="322.7"/>
	<rect x="-48.8" y="11.3" class="st9" width="1921.5" height="300"/>
	<g>
		
			<linearGradient id="SVGID_10_" gradientUnits="userSpaceOnUse" x1="1153.9398" y1="413.6838" x2="887.2794" y2="259.7273" gradientTransform="matrix(1 0 0 -1 0 324)">
			<stop  offset="0" style="stop-color:#F9C4AA"/>
			<stop  offset="1" style="stop-color:#FEE9B8"/>
		</linearGradient>
		<path class="st11" d="M1020.6-166.1c-85.1,0-154.1,68.7-154.1,153.4s69,153.4,154.1,153.4S1174.7,72,1174.7-12.7
			C1174.7-97.5,1105.7-166.1,1020.6-166.1z M1020.6,103.5c-64.5,0-116.7-52-116.7-116.2s52.3-116.2,116.7-116.2
			c64.5,0,116.7,52,116.7,116.2C1137.3,51.4,1085.1,103.5,1020.6,103.5z"/>
		
			<linearGradient id="SVGID_11_" gradientUnits="userSpaceOnUse" x1="1732.1862" y1="29.936" x2="1588.8138" y2="278.264" gradientTransform="matrix(1 0 0 -1 0 324)">
			<stop  offset="0" style="stop-color:#F9C4AA"/>
			<stop  offset="1" style="stop-color:#FEE9B8"/>
		</linearGradient>
		<path class="st12" d="M1660.5,26.7c-79.4,0-143.8,64.1-143.8,143.2s64.4,143.2,143.8,143.2s143.8-64.1,143.8-143.2
			S1739.9,26.7,1660.5,26.7z M1660.5,278.4c-60.2,0-109-48.6-109-108.5s48.8-108.5,109-108.5s109,48.6,109,108.5
			S1720.7,278.4,1660.5,278.4z"/>
		
			<linearGradient id="SVGID_12_" gradientUnits="userSpaceOnUse" x1="1369.3971" y1="37.0563" x2="1007.2031" y2="-172.0564" gradientTransform="matrix(1 0 0 -1 0 324)">
			<stop  offset="0" style="stop-color:#F9C4AA"/>
			<stop  offset="1" style="stop-color:#FEE9B8"/>
		</linearGradient>
		<path class="st13" d="M1188.3,183.1c-115.6,0-209.3,93.3-209.3,208.4s93.7,208.4,209.3,208.4s209.3-93.3,209.3-208.4
			C1397.6,276.4,1303.9,183.1,1188.3,183.1z M1188.3,549.4c-87.6,0-158.6-70.7-158.6-157.9s71-157.9,158.6-157.9
			s158.6,70.7,158.6,157.9S1275.9,549.4,1188.3,549.4z"/>
	</g>
	<g>
		<g>
			<path class="st14" d="M1451.2,156.6h163c8.2,0,14.8,6.6,14.8,14.7v30.1c0,8.1-6.6,14.7-14.8,14.7h-163c-8.2,0-14.8-6.6-14.8-14.7
				v-30.1C1436.4,163.1,1443,156.6,1451.2,156.6z"/>
			
				<linearGradient id="SVGID_13_" gradientUnits="userSpaceOnUse" x1="1432.3999" y1="137.6994" x2="1633" y2="137.6994" gradientTransform="matrix(1 0 0 -1 0 324)">
				<stop  offset="0" style="stop-color:#FEE4A6"/>
				<stop  offset="1.908112e-02" style="stop-color:#FEE2A6"/>
				<stop  offset="0.4204" style="stop-color:#FFC4A6"/>
				<stop  offset="0.7615" style="stop-color:#FFB1A6"/>
				<stop  offset="1" style="stop-color:#FFAAA6"/>
			</linearGradient>
			<path class="st15" d="M1614.2,156.6c8.2,0,14.8,6.6,14.8,14.7v30.1c0,8.1-6.6,14.7-14.8,14.7h-163c-8.2,0-14.8-6.6-14.8-14.7
				v-30.1c0-8.1,6.6-14.7,14.8-14.7H1614.2 M1614.2,152.6h-163c-10.3,0-18.8,8.4-18.8,18.7v30.1c0,10.3,8.4,18.7,18.8,18.7h163
				c10.3,0,18.8-8.4,18.8-18.7v-30.1C1632.9,160.9,1624.5,152.6,1614.2,152.6L1614.2,152.6z"/>
		</g>
		<g>
			<path class="st14" d="M1172.3,323.6h456.6v-122c0-10.1-8.3-18.3-18.4-18.3h-156.9v-22.9c0-10.1-8.3-18.3-18.4-18.3h-244.5
				c-10.2,0-18.4,8.2-18.4,18.3L1172.3,323.6L1172.3,323.6z"/>
			
				<linearGradient id="SVGID_14_" gradientUnits="userSpaceOnUse" x1="1168.2999" y1="91.3493" x2="1632.8999" y2="91.3493" gradientTransform="matrix(1 0 0 -1 0 324)">
				<stop  offset="0" style="stop-color:#FEE4A6"/>
				<stop  offset="1.908112e-02" style="stop-color:#FEE2A6"/>
				<stop  offset="0.4204" style="stop-color:#FFC4A6"/>
				<stop  offset="0.7615" style="stop-color:#FFB1A6"/>
				<stop  offset="1" style="stop-color:#FFAAA6"/>
			</linearGradient>
			<path class="st16" d="M1435.2,141.9c10.2,0,18.4,8.2,18.4,18.3v23h156.9c10.2,0,18.4,8.2,18.4,18.3v122h-456.6V160.3
				c0-10.1,8.3-18.3,18.4-18.3h244.5 M1435.2,137.9h-244.5c-12.4,0-22.4,10-22.4,22.3v163.3v4h4h456.6h4v-4v-122
				c0-12.3-10.1-22.3-22.4-22.3h-152.9v-18.9C1457.7,148,1447.6,137.9,1435.2,137.9L1435.2,137.9z"/>
		</g>
	</g>
	<rect x="46.4" y="11.4" class="st9" width="1730" height="300"/>
</g>
</svg>
