<?xml version="1.0" encoding="utf-8"?>
<!-- Generator: Adobe Illustrator 21.0.0, SVG Export Plug-In . SVG Version: 6.00 Build 0)  -->
<svg version="1.1" id="레이어_1" xmlns="http://www.w3.org/2000/svg" xmlns:xlink="http://www.w3.org/1999/xlink" x="0px"
	 y="0px" viewBox="0 0 550.4 537.6" style="enable-background:new 0 0 550.4 537.6;" xml:space="preserve">
<style type="text/css">
	.st0{opacity:0.6;fill:#FFAAA6;enable-background:new    ;}
	.st1{fill:#FFFFFF;}
	.st2{fill:none;stroke:#39393D;stroke-miterlimit:10;}
	.st3{enable-background:new    ;}
	.st4{fill:#39393D;}
	.st5{fill:none;stroke:#39393D;stroke-width:2;stroke-miterlimit:10;}
	.st6{fill:#FFAAA6;}
	.st7{clip-path:url(#SVGID_2_);}
	.st8{fill:none;stroke:#FFF4E9;stroke-miterlimit:10;}
	.st9{fill:#FFFFFF;stroke:#3C3B3B;stroke-miterlimit:10;}
	.st10{fill:#757477;stroke:#3C3B3B;stroke-miterlimit:10;}
	.st11{fill:#FFF4E9;}
	.st12{fill:none;stroke:#3C3B3B;stroke-miterlimit:10;}
	.st13{fill:#636262;}
	.st14{fill:#DB6E7B;stroke:#3C3B3B;stroke-linecap:round;stroke-linejoin:round;stroke-miterlimit:10;}
	.st15{fill:none;stroke:#3C3B3B;stroke-width:0.5;stroke-linecap:round;stroke-linejoin:round;stroke-miterlimit:10;}
	.st16{fill:none;stroke:#3C3B3B;stroke-linecap:round;stroke-linejoin:round;stroke-miterlimit:10;}
	.st17{fill:#88928B;stroke:#3C3B3B;stroke-miterlimit:10;}
	.st18{fill:#F0EED0;stroke:#3C3B3B;stroke-miterlimit:10;}
	.st19{fill:#FFF4E9;stroke:#3C3B3B;stroke-miterlimit:10;}
	.st20{fill:#CECECE;stroke:#3C3B3B;stroke-miterlimit:10;}
	.st21{fill:#E0E0E0;stroke:#3C3B3B;stroke-miterlimit:10;}
	.st22{fill:#777777;stroke:#3C3B3B;stroke-miterlimit:10;}
</style>
<g>
	<path class="st0" d="M126.4,327.5H13c-7.1,0-13-5.8-13-13v-11.9c0-7.1,5.8-13,13-13h113.4c7.1,0,13,5.8,13,13v12
		C139.4,321.7,133.5,327.5,126.4,327.5z"/>
	<path class="st0" d="M537.4,87.9H424c-7.1,0-13-5.8-13-13V63c0-7.1,5.8-13,13-13h113.4c7.1,0,13,5.8,13,13v11.9
		C550.4,82,544.5,87.9,537.4,87.9z"/>
	<path class="st0" d="M151.7,276.6H35.6c-6.4,0-11.6-5.2-11.6-11.6v-7.2c0-6.4,5.2-11.6,11.6-11.6h116.1c6.4,0,11.6,5.2,11.6,11.6
		v7.2C163.4,271.4,158.1,276.6,151.7,276.6z"/>
	<path class="st0" d="M509.1,127.7H393c-6.4,0-11.6-5.2-11.6-11.6v-7.2c0-6.4,5.2-11.6,11.6-11.6h116.1c6.4,0,11.6,5.2,11.6,11.6
		v7.2C520.7,122.4,515.5,127.7,509.1,127.7z"/>
	<g>
		
			<image style="overflow:visible;opacity:0.75;enable-background:new    ;" width="1564" height="2274" xlink:href="612BFCAC.png"  transform="matrix(0.2387 0 0 0.2387 110.5402 0)">
		</image>
		<g>
			<path class="st1" d="M402.8,523.4H183.6c-33.7,0-61.1-27.3-61.1-61.1V72.4c0-33.7,27.3-61.1,61.1-61.1h219.2
				c33.7,0,61.1,27.3,61.1,61.1v389.9C463.9,496,436.5,523.4,402.8,523.4z"/>
			<path class="st2" d="M402.8,523.4H183.6c-33.7,0-61.1-27.3-61.1-61.1V72.4c0-33.7,27.3-61.1,61.1-61.1h219.2
				c33.7,0,61.1,27.3,61.1,61.1v389.9C463.9,496,436.5,523.4,402.8,523.4z"/>
		</g>
	</g>
	<g class="st3">
		<path class="st4" d="M224.1,346.3l0.2,9.7c0,1.1-0.2,1.5-1.3,1.5h-4.9c-1.1,0-1.3-0.4-1.3-1.5l-0.3-21.3c0-1.3,0.4-1.7,1.5-1.7
			h4.1c1.3,0,1.7,0.1,2.1,1l5.1,10.4v-9.7c0-1.3,0.4-1.7,1.5-1.7h4.1c1.2,0,1.5,0.4,1.5,1.7v21c0,1.3-0.3,1.8-1.5,1.8h-3.2
			c-1.3,0-1.8-0.4-2.5-1.6L224.1,346.3z"/>
		<path class="st4" d="M246.5,357.5c-2.2-0.1-4.2-0.3-5.7-1.1c-1.5-0.8-2.4-2-2.4-4.1c0-2.4,1.1-3.9,2.8-5c1.8-1,4.3-1.5,7.1-1.8
			c-1.4-1.1-4-1.1-7.2-0.4c-0.6,0.1-0.8,0-0.9-0.5l-0.2-4.3c0-0.6,0.2-0.8,0.7-0.9c1.9-0.3,4.1-0.6,6.1-0.5c2,0.1,4,0.5,5.4,1.6
			c1.4,1.1,2.4,2.9,2.5,5.7l0.3,9.6c0,1.3-0.4,1.8-1.7,1.8C251.1,357.5,248.7,357.6,246.5,357.5z M246.2,353.2
			c0.8,0.2,1.8,0.2,2.7,0.1l-0.2-3.3c-2.5,0.3-3.8,0.7-3.8,1.9C245,352.6,245.5,353.1,246.2,353.2z"/>
		<path class="st4" d="M268.2,338.9c2.4,0,4.2,0.9,5.3,2.3c1.1,1.5,1.6,3.5,1.5,5.6l-0.3,8.9c0,1.3-0.3,1.8-1.5,1.8h-4.2
			c-1.2,0-1.5-0.4-1.5-1.8l0-6.4c0-1.4,0-2.4-0.2-3c-0.2-0.6-0.6-0.9-1.4-0.8c-0.6,0-0.7,0.1-1.2,0.3v10c0,1.3-0.3,1.8-1.5,1.8h-4.1
			c-1.2,0-1.5-0.4-1.5-1.8l-0.3-14.5c0-0.6,0-1,0.2-1.3c0.2-0.2,0.6-0.3,1.2-0.4C261.6,339.2,264.4,338.9,268.2,338.9z"/>
		<path class="st4" d="M281.8,332c2.4,0,3.8,1.6,3.8,3.7s-1.4,3.7-3.8,3.7c-2.4,0-3.8-1.6-3.8-3.7S279.3,332,281.8,332z
			 M278.2,342.6c0-1.3,0.3-1.7,1.5-1.7h4.3c1.2,0,1.5,0.4,1.5,1.7l0.1,13.1c0,1.3-0.4,1.8-1.5,1.8h-4.3c-1.2,0-1.5-0.4-1.5-1.8
			V342.6z"/>
		<path class="st4" d="M303.4,333.5c0.5-0.8,1-1.1,1.9-0.8l4.6,1.8c0.8,0.4,1,1,0.4,1.7l-6.9,9.4c-0.5,0.7-0.8,1.2-0.8,2.3v7.7
			c0,1.3-0.4,1.8-1.5,1.8h-4.5c-1.2,0-1.5-0.4-1.5-1.8L295,348c0-1.1-0.3-1.6-0.8-2.3l-6.9-9.4c-0.5-0.8-0.4-1.4,0.4-1.7l4.6-1.8
			c0.9-0.4,1.3,0,1.9,0.8l4.5,6.6L303.4,333.5z"/>
		<path class="st4" d="M315.9,357.5c-2.2-0.1-4.2-0.3-5.7-1.1c-1.5-0.8-2.4-2-2.4-4.1c0-2.4,1.1-3.9,2.8-5c1.8-1,4.3-1.5,7.1-1.8
			c-1.4-1.1-4-1.1-7.2-0.4c-0.6,0.1-0.8,0-0.9-0.5l-0.2-4.3c0-0.6,0.2-0.8,0.7-0.9c1.9-0.3,4.1-0.6,6.1-0.5c2,0.1,4,0.5,5.4,1.6
			s2.4,2.9,2.5,5.7l0.3,9.6c0,1.3-0.4,1.8-1.7,1.8C320.5,357.5,318.1,357.6,315.9,357.5z M315.6,353.2c0.8,0.2,1.8,0.2,2.7,0.1
			l-0.2-3.3c-2.5,0.3-3.8,0.7-3.8,1.9C314.3,352.6,314.8,353.1,315.6,353.2z"/>
		<path class="st4" d="M337.6,338.9c2.4,0,4.2,0.9,5.3,2.3c1.1,1.5,1.6,3.5,1.5,5.6l-0.3,8.9c0,1.3-0.3,1.8-1.5,1.8h-4.2
			c-1.2,0-1.5-0.4-1.5-1.8l0-6.4c0-1.4,0-2.4-0.2-3c-0.2-0.6-0.6-0.9-1.4-0.8c-0.6,0-0.7,0.1-1.2,0.3v10c0,1.3-0.3,1.8-1.5,1.8h-4.1
			c-1.2,0-1.5-0.4-1.5-1.8l-0.3-14.5c0-0.6,0-1,0.2-1.3c0.2-0.2,0.6-0.3,1.2-0.4C331,339.2,333.8,338.9,337.6,338.9z"/>
		<path class="st4" d="M363.9,356.6c0,3.1-1,4.9-2.6,6c-1.6,1.1-3.9,1.4-6.3,1.4c-1.3,0-3.1-0.1-4.7-0.3c-0.6-0.1-0.9-0.3-0.9-1
			l0.1-3.7c0-0.5,0.1-0.9,0.8-0.7c0.6,0.1,1.3,0.2,2.1,0.3c0.7,0.1,1.4,0.1,1.9,0.1c1.6,0,3-0.3,3.3-1.2c-3.1,0.1-5.9-0.6-7.9-2.1
			c-2-1.5-3.3-3.8-3.3-7.1c0-3.3,1.4-5.7,3.6-7.2c2.2-1.5,5.2-2.2,8.5-2.2h4.1c0.9,0,1.3,0.3,1.3,1.5L363.9,356.6z M357.1,351.6
			l-0.1-6.8c-2.3,0.1-4,1.5-4,3.8C353,350.6,354.7,351.8,357.1,351.6z"/>
	</g>
	<g class="st3">
		<path class="st4" d="M226.4,400.2l-0.9-1.1v-10.7h8.5v11.8H226.4z M232.2,390h-5v8.8h5V390z M239.6,403.7h-1.8v-17.2h1.8V403.7z"
			/>
		<path class="st4" d="M254.2,393.7h2.1v-7.2h1.7v17.2h-1.7v-8.5h-2.1v7.6h-1.7v-3.4c-1.3,0.3-2.6,0.6-3.9,0.7
			c-1.3,0.2-2.6,0.2-3.9,0.2h-0.3l-0.9-1.1v-6h5v-3.5h-5v-1.5h6.8v6.5h-5v4.1h0.2c1.2,0,2.4-0.1,3.6-0.2c1.2-0.1,2.4-0.3,3.5-0.7
			v-11.1h1.7V393.7z"/>
		<path class="st4" d="M273.8,399.5c-0.9,0.2-1.8,0.3-2.8,0.4c-1,0.1-2,0.2-3.1,0.3c-1,0.1-2.1,0.1-3.1,0.1c-1,0-2,0.1-2.9,0.1h-0.9
			v-1.5h0.9c0.9,0,1.8,0,2.8-0.1c1,0,2-0.1,3-0.1c1-0.1,2-0.1,3-0.3c1-0.1,1.9-0.2,2.8-0.3L273.8,399.5z M262.2,391.8
			c0-0.7,0.1-1.3,0.4-1.8c0.2-0.5,0.6-1,1-1.4c0.4-0.4,0.9-0.7,1.5-0.9c0.5-0.2,1.1-0.3,1.8-0.3c0.6,0,1.2,0.1,1.8,0.3
			c0.6,0.2,1,0.5,1.5,0.9c0.4,0.4,0.7,0.9,1,1.4c0.2,0.6,0.4,1.2,0.4,1.9c0,0.7-0.1,1.3-0.4,1.9c-0.3,0.6-0.6,1-1,1.4
			c-0.4,0.4-0.9,0.7-1.5,0.9c-0.6,0.2-1.2,0.3-1.8,0.3c-0.6,0-1.2-0.1-1.8-0.3c-0.6-0.2-1.1-0.5-1.5-0.9c-0.4-0.4-0.8-0.9-1-1.4
			C262.3,393.1,262.2,392.5,262.2,391.8z M269.7,391.8c0-0.9-0.3-1.6-0.8-2.2c-0.5-0.5-1.2-0.8-2.1-0.8c-0.4,0-0.8,0.1-1.1,0.2
			c-0.4,0.2-0.7,0.3-0.9,0.6c-0.3,0.3-0.5,0.6-0.6,0.9c-0.2,0.4-0.2,0.8-0.2,1.2c0,0.5,0.1,0.9,0.2,1.2c0.1,0.4,0.3,0.7,0.6,0.9
			c0.2,0.3,0.5,0.5,0.9,0.6c0.3,0.2,0.7,0.2,1.1,0.2c0.9,0,1.6-0.3,2.1-0.8C269.5,393.4,269.7,392.7,269.7,391.8z M276.1,403.7h-1.8
			v-17.2h1.8V403.7z"/>
		<path class="st4" d="M288.5,397v-2.4c-0.6,0-1.3,0.1-1.9,0.1c-0.6,0-1.2,0-1.8,0h-0.6v-1.5h0.6c1.4,0,2.9,0,4.5-0.1
			c1.5-0.1,3-0.2,4.6-0.4l0.2,1.4c-0.6,0.1-1.3,0.2-1.9,0.2c-0.6,0.1-1.3,0.1-1.9,0.2v2.5H288.5z M285.5,389.4c0-0.9,0.3-1.6,1-2.2
			c0.7-0.5,1.6-0.8,2.8-0.8c1.2,0,2.2,0.3,2.9,0.8c0.7,0.5,1,1.3,1,2.2c0,0.9-0.3,1.7-1,2.2c-0.7,0.5-1.7,0.8-2.9,0.8
			c-1.2,0-2.2-0.3-2.8-0.8C285.8,391,285.5,390.3,285.5,389.4z M291.5,389.4c0-0.2,0-0.3-0.1-0.5c-0.1-0.2-0.2-0.3-0.3-0.5
			c-0.2-0.1-0.4-0.2-0.7-0.3c-0.3-0.1-0.7-0.1-1.1-0.1c-0.4,0-0.8,0.1-1,0.1c-0.3,0.1-0.5,0.2-0.7,0.3c-0.2,0.2-0.3,0.3-0.3,0.4
			c-0.1,0.2-0.1,0.3-0.1,0.5c0,0.2,0,0.3,0.1,0.5c0.1,0.2,0.2,0.3,0.3,0.4c0.2,0.2,0.4,0.3,0.7,0.3c0.3,0.1,0.6,0.1,1,0.1
			c0.4,0,0.8,0,1.1-0.1c0.3-0.1,0.5-0.2,0.7-0.3c0.2-0.1,0.3-0.3,0.3-0.4C291.5,389.7,291.5,389.5,291.5,389.4z M288.4,403.9
			l-0.9-1.1v-5h1.8v1.7h9v-1.7h1.8v6.1H288.4z M298.2,400.9h-9v1.5h9V400.9z M294.8,395v-8.2h1.7v10.3h-1.7v-0.7h-2.8V395H294.8z
			 M298.3,397.2v-10.8h1.7v10.8H298.3z"/>
		<path class="st4" d="M310.8,389.6v2.6c0,0.8-0.2,1.6-0.4,2.4c-0.3,0.9-0.7,1.7-1.3,2.5c-0.6,0.8-1.3,1.6-2.2,2.3
			c-0.9,0.7-1.9,1.4-3,2l-0.9-1.3c1.1-0.6,2-1.2,2.8-1.8c0.8-0.7,1.4-1.3,1.9-2c0.5-0.7,0.8-1.4,1-2.1c0.2-0.7,0.3-1.4,0.3-2.1v-2
			h-5.3v-1.5h6.1L310.8,389.6z M314.4,393.7h2.1v-7.2h1.7v17.2h-1.7v-8.5h-2.1v7.6h-1.7v-15.9h1.7V393.7z"/>
		<path class="st4" d="M330.5,387.3v7.7H323l-0.9-1.1v-6.5h1.8v2.5h5v-2.5H330.5z M328.8,393.5v-2.2h-5v2.2H328.8z M324.9,403.9
			l-0.9-1.1v-3.3h9.6v-1.4H324v-1.5h11.4v4.3h-9.6v1.5h10v1.5H324.9z M335.4,390.4h2.6v1.5h-2.6v3.8h-1.8v-9.2h1.8V390.4z"/>
		<path class="st4" d="M349.7,388.3v1.5h-3.9v1.9c0,1.7,0.4,3.2,1.3,4.4c0.8,1.3,1.9,2.4,3.4,3.3l-1.1,1.2c-0.5-0.3-0.9-0.6-1.4-1
			c-0.5-0.4-0.9-0.8-1.3-1.3c-0.4-0.4-0.8-0.9-1.1-1.4c-0.3-0.5-0.6-1-0.8-1.5c-0.2,0.5-0.5,1.1-0.8,1.6c-0.3,0.5-0.7,1-1.1,1.5
			c-0.4,0.5-0.9,0.9-1.3,1.3c-0.5,0.4-0.9,0.8-1.4,1l-1.1-1.2c0.7-0.4,1.4-1,2-1.5c0.6-0.6,1.1-1.2,1.5-1.9c0.4-0.7,0.8-1.4,1-2.2
			c0.2-0.7,0.3-1.5,0.3-2.3v-1.9h-3.9v-1.5H349.7z M353.6,393.7h2.6v1.5h-2.6v8.5h-1.8v-17.2h1.8V393.7z"/>
	</g>
	<g>
		<g class="st3">
			<path class="st4" d="M202.4,437.2c0,0.9,0.2,1.5,0.6,1.9c0.4,0.4,1,0.6,1.7,0.6c0.3,0,0.6-0.1,1-0.2c0.3-0.1,0.6-0.3,0.9-0.5
				c0.3-0.2,0.5-0.5,0.8-0.8c0.2-0.3,0.4-0.6,0.6-0.9v-6.7h1.7v10.3h-0.9l-0.8-0.8v-0.9c-0.4,0.6-1,1.1-1.6,1.4
				c-0.6,0.3-1.2,0.5-1.9,0.5c-1.2,0-2.1-0.3-2.8-1c-0.7-0.6-1-1.6-1-2.8v-6.7h1.7V437.2z"/>
			<path class="st4" d="M212.4,440.1v-13.8h1.7v8.6l4.7-4.3h2L216,435l4.9,5.9h-2l-4-4.8l-0.8,0.7v4.1h-0.9L212.4,440.1z"/>
			<path class="st4" d="M229.7,440.1v-5.8c0-0.9-0.2-1.5-0.6-1.9c-0.4-0.4-1-0.6-1.7-0.6c-0.3,0-0.7,0.1-1,0.2
				c-0.4,0.1-0.7,0.3-0.9,0.5c-0.3,0.2-0.6,0.5-0.8,0.8c-0.2,0.3-0.4,0.6-0.5,0.9v6.7h-0.9l-0.8-0.8v-9.5h1.7v1.7
				c0.4-0.6,1-1.1,1.6-1.4c0.6-0.3,1.2-0.5,1.9-0.5c1.2,0,2.1,0.3,2.8,1c0.7,0.7,1,1.6,1,2.8v6.7h-1L229.7,440.1z"/>
			<path class="st4" d="M238.5,441.1c-0.7,0-1.3-0.1-1.9-0.3c-0.6-0.2-1.1-0.6-1.6-1c-0.5-0.4-0.8-1-1.1-1.7
				c-0.3-0.7-0.4-1.4-0.4-2.3c0-0.9,0.1-1.7,0.4-2.4c0.3-0.7,0.6-1.2,1.1-1.7c0.4-0.4,1-0.8,1.6-1c0.6-0.2,1.2-0.3,1.9-0.3
				c0.7,0,1.3,0.1,1.9,0.3c0.6,0.2,1.1,0.6,1.6,1c0.4,0.5,0.8,1,1.1,1.7c0.3,0.7,0.4,1.5,0.4,2.4c0,0.9-0.1,1.6-0.4,2.3
				c-0.3,0.7-0.6,1.2-1.1,1.7c-0.5,0.4-1,0.8-1.6,1C239.7,441,239.1,441.1,238.5,441.1z M238.5,431.8c-0.5,0-1,0.1-1.4,0.3
				c-0.4,0.2-0.8,0.5-1,0.8c-0.3,0.4-0.5,0.8-0.6,1.3c-0.2,0.5-0.2,1-0.2,1.6c0,0.7,0.1,1.3,0.3,1.8c0.2,0.5,0.4,0.9,0.7,1.2
				c0.3,0.3,0.6,0.6,1,0.7c0.4,0.2,0.8,0.2,1.2,0.2c0.4,0,0.9-0.1,1.3-0.2c0.4-0.1,0.7-0.4,1-0.7c0.3-0.3,0.5-0.7,0.7-1.2
				c0.2-0.5,0.3-1.1,0.3-1.8c0-0.6-0.1-1.1-0.2-1.6c-0.2-0.5-0.3-0.9-0.6-1.3c-0.3-0.3-0.6-0.6-1-0.8
				C239.4,431.9,239,431.8,238.5,431.8z"/>
			<path class="st4" d="M250.6,430.6h1.9l2.1,8.8l2.4-8.8h1.6l-3,10.3h-2.2l-1.9-8.2l-1.9,8.2h-2.2l-3-10.3h1.7l2.4,8.8L250.6,430.6
				z"/>
			<path class="st4" d="M260,439c0.2,0.1,0.3,0.2,0.6,0.3c0.3,0.1,0.5,0.2,0.8,0.2c0.3,0.1,0.6,0.1,0.9,0.2c0.3,0,0.6,0.1,0.9,0.1
				c0.8,0,1.4-0.1,1.8-0.4c0.3-0.3,0.5-0.6,0.5-1c0-0.2-0.1-0.4-0.1-0.6c-0.1-0.2-0.2-0.3-0.4-0.5c-0.2-0.1-0.5-0.3-0.8-0.4
				l-1.3-0.5c-1.1-0.4-1.9-0.8-2.4-1.3c-0.5-0.5-0.8-1.1-0.8-1.8c0-0.8,0.3-1.5,1-2c0.7-0.4,1.6-0.7,2.9-0.7c0.6,0,1.1,0.1,1.7,0.2
				c0.5,0.1,1,0.3,1.4,0.5l-0.5,1.3c-0.3-0.1-0.7-0.3-1.1-0.4c-0.5-0.1-1-0.2-1.5-0.2c-0.7,0-1.2,0.1-1.6,0.3
				c-0.4,0.2-0.6,0.5-0.6,1c0,0.3,0.1,0.5,0.2,0.6c0.1,0.2,0.3,0.3,0.5,0.5c0.2,0.2,0.5,0.3,0.9,0.4c0.3,0.2,0.7,0.3,1.1,0.5
				c0.5,0.2,1,0.4,1.4,0.6c0.4,0.2,0.7,0.4,1,0.7c0.3,0.3,0.5,0.5,0.6,0.8c0.1,0.3,0.2,0.6,0.2,1c0,0.9-0.3,1.6-1,2.2
				c-0.7,0.5-1.7,0.8-3.1,0.8c-0.3,0-0.7,0-1-0.1c-0.3,0-0.7-0.1-1-0.2c-0.3-0.1-0.7-0.2-0.9-0.3c-0.3-0.1-0.6-0.2-0.8-0.3L260,439z
				"/>
			<path class="st4" d="M267.2,443.1c0.8-0.1,1.4-0.3,1.9-0.7c0.4-0.3,0.7-1,0.7-1.8v-10.2h1.7v10.2c0,0.5-0.1,1-0.2,1.5
				c-0.2,0.4-0.4,0.8-0.7,1.2c-0.3,0.3-0.8,0.6-1.3,0.8c-0.5,0.2-1.2,0.3-1.9,0.4L267.2,443.1z M271.4,428.6h-1.7v-2.2h1.7V428.6z"
				/>
			<path class="st4" d="M281,440.9c-1.2,0-2.2-0.2-3.1-0.6c-0.9-0.4-1.6-0.9-2.2-1.5c-0.6-0.6-1-1.4-1.3-2.2
				c-0.3-0.8-0.4-1.7-0.4-2.6c0-0.9,0.2-1.9,0.5-2.8c0.3-0.9,0.8-1.7,1.5-2.4c0.6-0.7,1.4-1.3,2.4-1.8c0.9-0.4,2-0.7,3.3-0.7
				c0.9,0,1.7,0.2,2.4,0.4c0.7,0.3,1.4,0.7,2,1.2c0.5,0.5,1,1.2,1.3,1.9c0.3,0.7,0.5,1.6,0.5,2.5c0,0.7-0.1,1.3-0.3,1.9
				c-0.2,0.6-0.4,1.2-0.8,1.7c-0.4,0.5-0.8,0.9-1.4,1.2c-0.6,0.3-1.2,0.4-1.9,0.4c-0.6,0-1-0.1-1.3-0.2c-0.3-0.2-0.5-0.4-0.5-0.7
				c-0.3,0.3-0.6,0.5-1,0.7c-0.4,0.2-0.8,0.3-1.1,0.3c-0.8,0-1.4-0.3-1.8-0.8c-0.4-0.5-0.5-1.3-0.4-2.2c0.1-0.7,0.3-1.3,0.5-1.9
				c0.2-0.6,0.5-1.1,0.9-1.5c0.4-0.4,0.8-0.7,1.3-1c0.5-0.2,1-0.3,1.6-0.3c0.4,0,0.7,0.1,1.1,0.2c0.3,0.2,0.5,0.3,0.7,0.5l0.2-0.5
				h1.5l-1.7,5.6c-0.1,0.3-0.1,0.5,0,0.6c0.1,0.2,0.3,0.2,0.5,0.2c0.4,0,0.8-0.1,1.1-0.3c0.3-0.2,0.6-0.5,0.8-0.9
				c0.2-0.4,0.4-0.8,0.5-1.3c0.1-0.5,0.2-1,0.2-1.5c0-0.7-0.1-1.3-0.3-1.8c-0.2-0.6-0.5-1.1-0.9-1.5c-0.4-0.4-0.9-0.7-1.5-1
				c-0.6-0.2-1.3-0.3-2-0.3c-1,0-1.8,0.2-2.6,0.5c-0.8,0.4-1.4,0.9-1.9,1.4c-0.5,0.6-0.9,1.3-1.2,2c-0.3,0.8-0.4,1.6-0.4,2.3
				c0,0.7,0.1,1.5,0.3,2.1c0.2,0.7,0.5,1.3,1,1.8c0.4,0.5,1,0.9,1.7,1.2c0.7,0.3,1.5,0.5,2.4,0.5c0.4,0,0.8,0,1.2-0.1
				c0.4,0,0.7-0.1,1.1-0.2c0.3-0.1,0.6-0.1,0.9-0.2c0.3-0.1,0.5-0.1,0.7-0.2l0.3,1.1c-0.6,0.2-1.2,0.4-1.9,0.6
				C282.6,440.8,281.8,440.9,281,440.9z M279.8,436.4c0.5,0,0.9-0.1,1.2-0.3c0.3-0.2,0.5-0.4,0.8-0.6l1.2-3.9
				c-0.1-0.2-0.3-0.3-0.6-0.4c-0.3-0.1-0.6-0.2-1-0.2c-0.7,0-1.3,0.3-1.7,1c-0.5,0.7-0.8,1.5-1,2.5c-0.1,0.7-0.1,1.1,0.1,1.4
				C279.1,436.2,279.4,436.4,279.8,436.4z"/>
			<path class="st4" d="M299.7,430.6v8.8c0,0.8-0.1,1.5-0.3,2.2c-0.2,0.7-0.5,1.2-0.9,1.7c-0.4,0.5-0.9,0.9-1.6,1.1
				c-0.7,0.3-1.5,0.4-2.4,0.4c-0.6,0-1.2-0.1-1.8-0.2c-0.6-0.2-1.1-0.3-1.6-0.6l0.5-1.2c0.4,0.2,0.9,0.4,1.3,0.5
				c0.4,0.1,1,0.2,1.6,0.2c0.5,0,1-0.1,1.4-0.2c0.4-0.2,0.8-0.4,1.1-0.6c0.3-0.3,0.5-0.7,0.7-1.1c0.2-0.5,0.2-1,0.2-1.7v-0.4
				c-0.2,0.3-0.4,0.6-0.7,0.8c-0.3,0.2-0.6,0.4-0.9,0.5c-0.3,0.1-0.6,0.2-1,0.3c-0.3,0.1-0.7,0.1-1,0.1c-0.6,0-1.1-0.1-1.7-0.3
				c-0.5-0.2-1-0.6-1.4-1c-0.4-0.4-0.8-1-1-1.7c-0.3-0.7-0.4-1.5-0.4-2.4c0-0.8,0.1-1.5,0.4-2.1c0.2-0.6,0.6-1.2,1-1.7
				c0.4-0.4,0.9-0.8,1.5-1.1c0.5-0.2,1.1-0.4,1.8-0.4c0.6,0,1.2,0.1,1.9,0.4c0.6,0.3,1.1,0.6,1.5,1.1v-1.3H299.7z M298,434.9
				c0-0.4-0.1-0.7-0.2-1.1c-0.2-0.3-0.4-0.7-0.6-1c-0.3-0.3-0.6-0.5-0.9-0.7c-0.4-0.2-0.8-0.3-1.1-0.3c-0.6,0-1,0.1-1.5,0.3
				c-0.4,0.2-0.8,0.5-1,0.8c-0.3,0.3-0.5,0.7-0.6,1.2c-0.2,0.5-0.2,1-0.2,1.5c0,1.2,0.3,2.2,0.9,2.9c0.5,0.7,1.3,1,2.3,1
				c0.4,0,0.8-0.1,1.2-0.2c0.4-0.2,0.7-0.3,1-0.6c0.3-0.3,0.5-0.6,0.7-0.9c0.2-0.3,0.3-0.7,0.3-1.1V434.9z"/>
			<path class="st4" d="M314.3,440.1v-6.5c0-0.6-0.2-1.1-0.5-1.4c-0.3-0.3-0.8-0.4-1.4-0.4c-0.4,0-0.8,0.1-1.3,0.4
				c-0.4,0.3-0.8,0.6-1,1.1v7.6h-0.9l-0.8-0.8v-6.5c0-0.7-0.2-1.1-0.5-1.4c-0.3-0.3-0.8-0.4-1.4-0.4c-0.4,0-0.8,0.1-1.3,0.4
				c-0.4,0.3-0.8,0.6-1.1,1.1v7.6h-0.9l-0.8-0.8v-9.5h1.7v1c0.3-0.4,0.8-0.7,1.3-0.9c0.5-0.2,1-0.3,1.5-0.3c0.7,0,1.3,0.2,1.8,0.4
				c0.5,0.3,0.9,0.7,1.1,1.2c0.4-0.6,0.9-1,1.4-1.3c0.5-0.2,1.1-0.4,1.6-0.4c1,0,1.8,0.3,2.4,0.9c0.6,0.6,0.9,1.4,0.9,2.3v7.3h-0.9
				L314.3,440.1z"/>
			<path class="st4" d="M325.5,440.1v-0.6c-0.2,0.3-0.4,0.5-0.7,0.7c-0.3,0.2-0.6,0.3-1,0.5c-0.3,0.1-0.7,0.2-1.1,0.3
				c-0.4,0.1-0.7,0.1-1.1,0.1c-0.5,0-1-0.1-1.5-0.2c-0.5-0.1-0.9-0.3-1.2-0.5c-0.3-0.2-0.6-0.5-0.8-0.9c-0.2-0.3-0.3-0.8-0.3-1.3
				c0-0.4,0.1-0.8,0.2-1.1c0.1-0.3,0.3-0.6,0.6-0.9c0.2-0.2,0.5-0.4,0.9-0.6c0.3-0.2,0.6-0.3,1-0.4c0.6-0.2,1.3-0.3,2.1-0.4
				c0.8-0.1,1.7-0.3,2.8-0.5c0-0.4-0.1-0.8-0.2-1.1s-0.4-0.6-0.6-0.8c-0.3-0.2-0.6-0.3-1-0.4c-0.4-0.1-0.8-0.1-1.2-0.1
				c-0.2,0-0.5,0-0.8,0.1c-0.3,0.1-0.6,0.1-0.9,0.2c-0.3,0.1-0.6,0.2-0.8,0.3c-0.3,0.1-0.5,0.3-0.7,0.4l-0.6-1.2
				c0.2-0.2,0.5-0.3,0.8-0.4c0.3-0.1,0.6-0.3,1-0.4c0.3-0.1,0.7-0.2,1.1-0.2c0.4,0,0.8-0.1,1.2-0.1c0.8,0,1.5,0.1,2.1,0.3
				c0.6,0.3,1,0.6,1.4,1c0.3,0.4,0.6,0.9,0.8,1.3c0.1,0.5,0.2,1,0.2,1.5v6.3h-0.8L325.5,440.1z M325.3,438c0.1-0.2,0.1-0.4,0.1-0.6
				v-1.7c-0.3,0.1-0.6,0.2-1,0.2c-0.4,0.1-0.7,0.2-1.1,0.2c-0.4,0.1-0.7,0.1-1,0.2c-0.3,0.1-0.6,0.1-0.9,0.2c-0.6,0.1-1,0.3-1.3,0.6
				c-0.3,0.3-0.5,0.7-0.5,1.2c0,0.3,0,0.5,0.2,0.7c0.1,0.2,0.2,0.3,0.4,0.5c0.2,0.1,0.4,0.2,0.6,0.3c0.2,0,0.5,0.1,0.7,0.1
				c0.3,0,0.7,0,1.1-0.1c0.4-0.1,0.8-0.2,1.1-0.4c0.3-0.2,0.7-0.3,0.9-0.6C325.1,438.5,325.2,438.2,325.3,438z"/>
			<path class="st4" d="M331.5,428.6h-1.7v-2.2h1.7V428.6z M329.8,440.1v-9.7h1.7v10.5h-0.9L329.8,440.1z"/>
			<path class="st4" d="M334.6,440.1v-13.8h1.7v14.6h-0.9L334.6,440.1z"/>
			<path class="st4" d="M341.8,440.8h-2.3v-2.2h2.3V440.8z"/>
			<path class="st4" d="M352.9,440.5c-0.3,0.1-0.7,0.2-1.2,0.4c-0.5,0.1-1.2,0.2-1.9,0.2c-0.8,0-1.6-0.1-2.3-0.4
				c-0.7-0.3-1.3-0.6-1.7-1.1c-0.5-0.5-0.9-1-1.1-1.7c-0.3-0.6-0.4-1.4-0.4-2.2c0-0.8,0.1-1.5,0.4-2.2c0.3-0.6,0.7-1.2,1.2-1.7
				c0.5-0.5,1.1-0.8,1.8-1.1c0.7-0.2,1.4-0.4,2.2-0.4c0.7,0,1.3,0.1,1.9,0.2c0.5,0.1,0.9,0.3,1.2,0.4l-0.5,1.3
				c-0.3-0.1-0.6-0.2-0.9-0.3c-0.4-0.1-0.8-0.1-1.4-0.1c-0.6,0-1.1,0.1-1.6,0.2c-0.5,0.2-1,0.4-1.3,0.7c-0.4,0.3-0.7,0.7-0.9,1.2
				c-0.2,0.5-0.3,1.1-0.3,1.7c0,0.7,0.1,1.3,0.3,1.7c0.2,0.5,0.5,0.9,0.9,1.2c0.4,0.3,0.8,0.5,1.3,0.7c0.5,0.2,1,0.2,1.6,0.2
				c0.6,0,1.1-0.1,1.5-0.2c0.4-0.1,0.7-0.2,1-0.3L352.9,440.5z"/>
			<path class="st4" d="M359.1,441.1c-0.7,0-1.3-0.1-1.9-0.3c-0.6-0.2-1.1-0.6-1.6-1c-0.5-0.4-0.8-1-1.1-1.7
				c-0.3-0.7-0.4-1.4-0.4-2.3c0-0.9,0.1-1.7,0.4-2.4c0.3-0.7,0.6-1.2,1.1-1.7c0.4-0.4,1-0.8,1.6-1c0.6-0.2,1.2-0.3,1.9-0.3
				c0.7,0,1.3,0.1,1.9,0.3c0.6,0.2,1.1,0.6,1.6,1c0.4,0.5,0.8,1,1.1,1.7c0.3,0.7,0.4,1.5,0.4,2.4c0,0.9-0.1,1.6-0.4,2.3
				c-0.3,0.7-0.6,1.2-1.1,1.7c-0.5,0.4-1,0.8-1.6,1C360.4,441,359.7,441.1,359.1,441.1z M359.1,431.8c-0.5,0-1,0.1-1.4,0.3
				c-0.4,0.2-0.8,0.5-1,0.8c-0.3,0.4-0.5,0.8-0.6,1.3c-0.2,0.5-0.2,1-0.2,1.6c0,0.7,0.1,1.3,0.3,1.8c0.2,0.5,0.4,0.9,0.7,1.2
				c0.3,0.3,0.6,0.6,1,0.7c0.4,0.2,0.8,0.2,1.2,0.2c0.4,0,0.9-0.1,1.3-0.2c0.4-0.1,0.7-0.4,1-0.7c0.3-0.3,0.5-0.7,0.7-1.2
				c0.2-0.5,0.3-1.1,0.3-1.8c0-0.6-0.1-1.1-0.2-1.6c-0.2-0.5-0.3-0.9-0.6-1.3c-0.3-0.3-0.6-0.6-1-0.8
				C360,431.9,359.6,431.8,359.1,431.8z"/>
			<path class="st4" d="M378.2,440.1v-6.5c0-0.6-0.2-1.1-0.5-1.4c-0.3-0.3-0.8-0.4-1.4-0.4c-0.4,0-0.8,0.1-1.3,0.4
				c-0.4,0.3-0.8,0.6-1,1.1v7.6h-0.9l-0.8-0.8v-6.5c0-0.7-0.2-1.1-0.5-1.4c-0.3-0.3-0.8-0.4-1.4-0.4c-0.4,0-0.8,0.1-1.3,0.4
				c-0.4,0.3-0.8,0.6-1.1,1.1v7.6h-0.9l-0.8-0.8v-9.5h1.7v1c0.3-0.4,0.8-0.7,1.3-0.9c0.5-0.2,1-0.3,1.5-0.3c0.7,0,1.3,0.2,1.8,0.4
				c0.5,0.3,0.9,0.7,1.1,1.2c0.4-0.6,0.9-1,1.4-1.3c0.5-0.2,1.1-0.4,1.6-0.4c1,0,1.8,0.3,2.4,0.9c0.6,0.6,0.9,1.4,0.9,2.3v7.3H379
				L378.2,440.1z"/>
		</g>
	</g>
	<g>
		<g class="st3">
			<path class="st4" d="M189.3,468.3h2.5l0.7-3.6h1.3l-0.7,3.6h1.6v1.1h-1.9l-0.6,2.9h2v1.1h-2.2l-0.7,3.7h-1.3l0.7-3.7h-2.5
				l-0.7,3.7h-1.3l0.7-3.7h-1.6v-1.1h1.8l0.6-2.9h-2v-1.1h2.2l0.7-3.6h1.3L189.3,468.3z M188.5,472.3h2.5l0.6-2.9h-2.5L188.5,472.3z
				"/>
			<path class="st4" d="M196.5,476.3v-11.4h1.7l5.2,9.8v-9.8h1.4v12h-1.7l-5.3-10v10h-0.8L196.5,476.3z"/>
			<path class="st4" d="M210.9,477.1c-0.5,0-1.1-0.1-1.6-0.3c-0.5-0.2-0.9-0.5-1.3-0.8c-0.4-0.4-0.7-0.8-0.9-1.4
				c-0.2-0.5-0.3-1.2-0.3-1.9c0-0.7,0.1-1.4,0.3-1.9c0.2-0.5,0.5-1,0.9-1.4c0.4-0.4,0.8-0.6,1.3-0.8c0.5-0.2,1-0.3,1.6-0.3
				c0.5,0,1.1,0.1,1.6,0.3c0.5,0.2,0.9,0.5,1.3,0.8c0.4,0.4,0.7,0.8,0.9,1.4c0.2,0.6,0.3,1.2,0.3,1.9c0,0.7-0.1,1.3-0.3,1.9
				c-0.2,0.5-0.5,1-0.9,1.4c-0.4,0.4-0.8,0.6-1.3,0.8C211.9,477,211.4,477.1,210.9,477.1z M210.9,469.4c-0.4,0-0.8,0.1-1.1,0.2
				c-0.4,0.2-0.6,0.4-0.8,0.7c-0.2,0.3-0.4,0.7-0.5,1.1c-0.1,0.4-0.2,0.8-0.2,1.3c0,0.6,0.1,1.1,0.2,1.5c0.1,0.4,0.3,0.7,0.6,1
				c0.2,0.3,0.5,0.5,0.9,0.6c0.3,0.1,0.7,0.2,1,0.2c0.4,0,0.7-0.1,1-0.2c0.3-0.1,0.6-0.3,0.8-0.6c0.2-0.3,0.4-0.6,0.6-1
				c0.1-0.4,0.2-0.9,0.2-1.5c0-0.5-0.1-0.9-0.2-1.3c-0.1-0.4-0.3-0.8-0.5-1.1c-0.2-0.3-0.5-0.5-0.8-0.7
				C211.7,469.5,211.3,469.4,210.9,469.4z"/>
			<path class="st4" d="M224.4,464.9v12h-0.7l-0.6-0.6v-0.7c-0.3,0.5-0.7,0.9-1.3,1.2c-0.5,0.2-1.1,0.3-1.7,0.3
				c-0.5,0-0.9-0.1-1.4-0.3c-0.4-0.2-0.8-0.5-1.2-0.8c-0.4-0.4-0.6-0.8-0.8-1.4c-0.2-0.5-0.3-1.2-0.3-2c0-0.6,0.1-1.2,0.3-1.7
				c0.2-0.5,0.5-1,0.8-1.4c0.3-0.4,0.7-0.7,1.2-0.9c0.4-0.2,0.9-0.3,1.5-0.3c0.6,0,1.1,0.1,1.6,0.3c0.5,0.2,0.8,0.5,1.1,0.9v-4.6
				H224.4z M223,472c0-0.3-0.1-0.6-0.2-0.9c-0.1-0.3-0.3-0.6-0.5-0.8c-0.2-0.2-0.5-0.4-0.8-0.6c-0.3-0.1-0.6-0.2-0.9-0.2
				c-0.5,0-0.9,0.1-1.2,0.2c-0.4,0.2-0.6,0.4-0.8,0.7c-0.2,0.3-0.4,0.6-0.5,1c-0.1,0.4-0.2,0.8-0.2,1.2c0,0.5,0,0.9,0.2,1.3
				c0.1,0.4,0.3,0.7,0.5,1c0.2,0.3,0.5,0.5,0.8,0.7c0.3,0.2,0.7,0.2,1.1,0.2c0.3,0,0.7-0.1,1-0.2c0.3-0.1,0.6-0.3,0.8-0.5
				c0.2-0.2,0.4-0.5,0.6-0.8c0.1-0.3,0.2-0.6,0.2-0.9V472z"/>
			<path class="st4" d="M233.8,476.1c-0.5,0.3-1.1,0.6-1.7,0.7c-0.6,0.2-1.2,0.2-1.8,0.2c-0.5,0-1.1-0.1-1.6-0.2
				c-0.5-0.2-1-0.4-1.3-0.8c-0.4-0.3-0.7-0.8-0.9-1.3c-0.3-0.5-0.4-1.2-0.4-2c0-0.8,0.1-1.4,0.3-2c0.2-0.5,0.5-1,0.8-1.4
				c0.3-0.4,0.8-0.6,1.2-0.8c0.5-0.2,1-0.3,1.6-0.3c0.6,0,1.1,0.1,1.6,0.3c0.5,0.2,0.9,0.5,1.2,0.8c0.3,0.4,0.6,0.8,0.8,1.4
				c0.2,0.6,0.3,1.2,0.3,1.9v0.4h-6.4c0,0.5,0.1,1,0.3,1.3c0.2,0.4,0.4,0.7,0.7,0.9c0.3,0.2,0.6,0.4,0.9,0.5c0.3,0.1,0.7,0.1,1,0.1
				c0.2,0,0.4,0,0.7,0c0.2,0,0.5-0.1,0.8-0.2c0.3-0.1,0.5-0.1,0.8-0.3c0.2-0.1,0.5-0.2,0.7-0.3L233.8,476.1z M232.6,472
				c0-0.3-0.1-0.6-0.2-0.9c-0.1-0.3-0.3-0.6-0.5-0.8c-0.2-0.2-0.5-0.4-0.8-0.6c-0.3-0.1-0.7-0.2-1.1-0.2c-0.4,0-0.8,0.1-1.1,0.2
				c-0.3,0.2-0.6,0.4-0.8,0.6c-0.2,0.3-0.4,0.5-0.5,0.8c-0.1,0.3-0.2,0.6-0.2,0.9H232.6z"/>
			<path class="st4" d="M237.8,476.8h-1.9V475h1.9V476.8z"/>
			<path class="st4" d="M238.4,478.7c0.7-0.1,1.2-0.3,1.6-0.6c0.4-0.3,0.5-0.8,0.5-1.5v-8.4h1.4v8.4c0,0.4-0.1,0.9-0.2,1.3
				c-0.1,0.4-0.3,0.7-0.6,1c-0.3,0.3-0.6,0.5-1.1,0.7c-0.4,0.2-1,0.3-1.6,0.3L238.4,478.7z M242,466.7h-1.4v-1.8h1.4V466.7z"/>
			<path class="st4" d="M244,475.3c0.1,0.1,0.3,0.1,0.5,0.2c0.2,0.1,0.4,0.1,0.7,0.2c0.2,0.1,0.5,0.1,0.8,0.1c0.3,0,0.5,0,0.7,0
				c0.7,0,1.2-0.1,1.5-0.3c0.3-0.2,0.4-0.5,0.4-0.9c0-0.2,0-0.4-0.1-0.5c-0.1-0.1-0.2-0.3-0.4-0.4c-0.2-0.1-0.4-0.2-0.7-0.4l-1-0.4
				c-0.9-0.3-1.5-0.7-2-1.1c-0.4-0.4-0.7-0.9-0.7-1.5c0-0.7,0.3-1.2,0.8-1.6c0.5-0.4,1.3-0.6,2.4-0.6c0.5,0,0.9,0,1.4,0.1
				c0.4,0.1,0.8,0.2,1.2,0.4l-0.4,1.1c-0.3-0.1-0.6-0.2-0.9-0.3c-0.4-0.1-0.8-0.1-1.3-0.1c-0.5,0-1,0.1-1.3,0.2
				c-0.3,0.2-0.5,0.4-0.5,0.8c0,0.2,0,0.4,0.2,0.5c0.1,0.2,0.2,0.3,0.4,0.4c0.2,0.1,0.4,0.3,0.7,0.4c0.3,0.1,0.6,0.3,0.9,0.4
				c0.4,0.2,0.8,0.4,1.1,0.5c0.3,0.2,0.6,0.4,0.8,0.5c0.2,0.2,0.4,0.4,0.5,0.7c0.1,0.2,0.2,0.5,0.2,0.8c0,0.8-0.3,1.3-0.8,1.8
				c-0.5,0.4-1.4,0.6-2.6,0.6c-0.3,0-0.5,0-0.8,0s-0.6-0.1-0.8-0.1c-0.3-0.1-0.5-0.1-0.8-0.2c-0.3-0.1-0.5-0.2-0.6-0.3L244,475.3z"
				/>
			<path class="st4" d="M259.6,468.3h2.5l0.7-3.6h1.3l-0.7,3.6h1.6v1.1h-1.9l-0.6,2.9h2v1.1h-2.2l-0.7,3.7h-1.3l0.7-3.7h-2.5
				l-0.7,3.7h-1.3l0.7-3.7h-1.6v-1.1h1.8l0.6-2.9h-2v-1.1h2.2l0.7-3.6h1.3L259.6,468.3z M258.8,472.3h2.5l0.6-2.9h-2.5L258.8,472.3z
				"/>
			<path class="st4" d="M266.8,476.3v-11.4h4.3c1.2,0,2.1,0.3,2.7,0.9c0.6,0.6,0.9,1.6,0.9,2.8c0,1-0.2,1.8-0.6,2.4
				c-0.4,0.6-1,1-1.8,1.2l3,4.7h-1.6l-2.9-4.6h-2.5v4.6h-0.8L266.8,476.3z M271.1,471c0.7,0,1.3-0.2,1.7-0.6c0.4-0.4,0.5-1,0.5-1.8
				s-0.2-1.4-0.5-1.8c-0.4-0.4-0.9-0.6-1.7-0.6h-2.9v4.9H271.1z"/>
			<path class="st4" d="M283.9,476.1c-0.5,0.3-1.1,0.6-1.7,0.7c-0.6,0.2-1.2,0.2-1.8,0.2c-0.5,0-1.1-0.1-1.6-0.2
				c-0.5-0.2-1-0.4-1.3-0.8c-0.4-0.3-0.7-0.8-0.9-1.3c-0.3-0.5-0.4-1.2-0.4-2c0-0.8,0.1-1.4,0.3-2c0.2-0.5,0.5-1,0.8-1.4
				c0.3-0.4,0.8-0.6,1.2-0.8c0.5-0.2,1-0.3,1.6-0.3c0.6,0,1.1,0.1,1.6,0.3c0.5,0.2,0.9,0.5,1.2,0.8c0.3,0.4,0.6,0.8,0.8,1.4
				c0.2,0.6,0.3,1.2,0.3,1.9v0.4h-6.4c0,0.5,0.1,1,0.3,1.3c0.2,0.4,0.4,0.7,0.7,0.9c0.3,0.2,0.6,0.4,0.9,0.5c0.3,0.1,0.7,0.1,1,0.1
				c0.2,0,0.4,0,0.7,0c0.2,0,0.5-0.1,0.8-0.2c0.3-0.1,0.5-0.1,0.8-0.3c0.2-0.1,0.5-0.2,0.7-0.3L283.9,476.1z M282.7,472
				c0-0.3-0.1-0.6-0.2-0.9c-0.1-0.3-0.3-0.6-0.5-0.8c-0.2-0.2-0.5-0.4-0.8-0.6c-0.3-0.1-0.7-0.2-1.1-0.2c-0.4,0-0.8,0.1-1.1,0.2
				c-0.3,0.2-0.6,0.4-0.8,0.6c-0.2,0.3-0.4,0.5-0.5,0.8c-0.1,0.3-0.2,0.6-0.2,0.9H282.7z"/>
			<path class="st4" d="M291.6,476.3v-0.5c-0.2,0.2-0.4,0.4-0.6,0.6c-0.2,0.2-0.5,0.3-0.8,0.4c-0.3,0.1-0.6,0.2-0.9,0.3
				c-0.3,0-0.6,0.1-0.9,0.1c-0.4,0-0.8,0-1.2-0.1c-0.4-0.1-0.7-0.2-1-0.4c-0.3-0.2-0.5-0.4-0.6-0.7c-0.2-0.3-0.2-0.7-0.2-1.1
				c0-0.3,0-0.6,0.2-0.9c0.1-0.3,0.3-0.5,0.5-0.7c0.2-0.2,0.4-0.4,0.7-0.5c0.3-0.1,0.5-0.2,0.8-0.3c0.5-0.1,1-0.3,1.7-0.4
				c0.6-0.1,1.4-0.2,2.3-0.4c0-0.4-0.1-0.7-0.2-0.9c-0.1-0.3-0.3-0.5-0.5-0.6s-0.5-0.3-0.8-0.4c-0.3-0.1-0.7-0.1-1-0.1
				c-0.2,0-0.4,0-0.6,0c-0.2,0-0.5,0.1-0.7,0.2c-0.2,0.1-0.5,0.2-0.7,0.3c-0.2,0.1-0.4,0.2-0.6,0.3l-0.5-1c0.2-0.1,0.4-0.2,0.7-0.4
				c0.2-0.1,0.5-0.2,0.8-0.3c0.3-0.1,0.6-0.1,0.9-0.2c0.3,0,0.6-0.1,1-0.1c0.7,0,1.3,0.1,1.7,0.3c0.5,0.2,0.9,0.5,1.1,0.8
				c0.3,0.3,0.5,0.7,0.6,1.1c0.1,0.4,0.2,0.8,0.2,1.2v5.2h-0.7L291.6,476.3z M291.4,474.5c0-0.1,0.1-0.3,0.1-0.5v-1.4
				c-0.2,0.1-0.5,0.1-0.8,0.2c-0.3,0.1-0.6,0.1-0.9,0.2c-0.3,0.1-0.6,0.1-0.9,0.1c-0.3,0-0.5,0.1-0.7,0.1c-0.5,0.1-0.9,0.3-1.1,0.5
				c-0.3,0.3-0.4,0.6-0.4,1c0,0.2,0,0.4,0.1,0.6c0.1,0.2,0.2,0.3,0.4,0.4c0.1,0.1,0.3,0.2,0.5,0.2c0.2,0,0.4,0,0.6,0
				c0.3,0,0.6,0,0.9-0.1c0.3-0.1,0.6-0.2,0.9-0.3s0.5-0.3,0.8-0.5C291.2,474.9,291.4,474.7,291.4,474.5z"/>
			<path class="st4" d="M301.7,476.6c-0.2,0.1-0.5,0.2-1,0.3c-0.4,0.1-1,0.2-1.6,0.2c-0.7,0-1.3-0.1-1.9-0.3
				c-0.6-0.2-1.1-0.5-1.4-0.9c-0.4-0.4-0.7-0.8-0.9-1.4c-0.2-0.5-0.3-1.1-0.3-1.8c0-0.7,0.1-1.3,0.4-1.8c0.2-0.5,0.6-1,1-1.4
				c0.4-0.4,0.9-0.7,1.5-0.9c0.6-0.2,1.2-0.3,1.8-0.3c0.6,0,1.1,0,1.5,0.1c0.4,0.1,0.7,0.2,1,0.3l-0.4,1.1c-0.2-0.1-0.5-0.2-0.8-0.3
				c-0.3-0.1-0.7-0.1-1.1-0.1c-0.5,0-0.9,0.1-1.3,0.2c-0.4,0.1-0.8,0.4-1.1,0.6c-0.3,0.3-0.6,0.6-0.7,1c-0.2,0.4-0.3,0.9-0.3,1.4
				c0,0.6,0.1,1.1,0.3,1.4c0.2,0.4,0.4,0.7,0.8,1c0.3,0.3,0.7,0.4,1.1,0.6c0.4,0.1,0.8,0.2,1.3,0.2c0.5,0,0.9,0,1.2-0.1
				c0.3-0.1,0.6-0.2,0.8-0.3L301.7,476.6z"/>
			<path class="st4" d="M302.4,469v-0.6h1.5v-3.6h1.4v3.6h1.9v1.2h-1.9v5.3c0,0.2,0,0.4,0.1,0.6c0,0.1,0.1,0.2,0.3,0.3
				c0.1,0.1,0.4,0.1,0.6,0.1c0.3,0,0.6,0,1-0.1l0.1,1c-0.1,0-0.2,0.1-0.3,0.1c-0.1,0-0.3,0-0.4,0.1c-0.2,0-0.3,0-0.4,0h-0.4
				c-0.4,0-0.7-0.1-1-0.2c-0.3-0.1-0.5-0.3-0.6-0.5c-0.2-0.2-0.3-0.4-0.3-0.7c-0.1-0.3-0.1-0.5-0.1-0.8v-5.3h-0.9L302.4,469z"/>
			<path class="st4" d="M316.7,468.3h2.5l0.7-3.6h1.3l-0.7,3.6h1.6v1.1h-1.9l-0.6,2.9h2v1.1h-2.2l-0.7,3.7h-1.3l0.7-3.7h-2.5
				l-0.7,3.7h-1.3l0.7-3.7h-1.6v-1.1h1.8l0.6-2.9h-2v-1.1h2.2l0.7-3.6h1.3L316.7,468.3z M315.9,472.3h2.5l0.6-2.9h-2.5L315.9,472.3z
				"/>
			<path class="st4" d="M323.9,476.3v-11.4h1.6l3.6,10.6l3.6-10.6h1.6v12h-0.8l-0.6-0.6v-7.9l-2.9,8.5h-1.8l-2.9-8.5v8.5h-0.8
				L323.9,476.3z"/>
			<path class="st4" d="M340.3,477.1c-0.5,0-1.1-0.1-1.6-0.3c-0.5-0.2-0.9-0.5-1.3-0.8c-0.4-0.4-0.7-0.8-0.9-1.4
				c-0.2-0.5-0.3-1.2-0.3-1.9c0-0.7,0.1-1.4,0.3-1.9c0.2-0.5,0.5-1,0.9-1.4c0.4-0.4,0.8-0.6,1.3-0.8c0.5-0.2,1-0.3,1.6-0.3
				c0.5,0,1.1,0.1,1.6,0.3c0.5,0.2,0.9,0.5,1.3,0.8c0.4,0.4,0.7,0.8,0.9,1.4c0.2,0.6,0.3,1.2,0.3,1.9c0,0.7-0.1,1.3-0.3,1.9
				c-0.2,0.5-0.5,1-0.9,1.4c-0.4,0.4-0.8,0.6-1.3,0.8C341.4,477,340.9,477.1,340.3,477.1z M340.3,469.4c-0.4,0-0.8,0.1-1.1,0.2
				c-0.4,0.2-0.6,0.4-0.8,0.7c-0.2,0.3-0.4,0.7-0.5,1.1c-0.1,0.4-0.2,0.8-0.2,1.3c0,0.6,0.1,1.1,0.2,1.5c0.1,0.4,0.3,0.7,0.6,1
				c0.2,0.3,0.5,0.5,0.9,0.6c0.3,0.1,0.7,0.2,1,0.2c0.4,0,0.7-0.1,1-0.2c0.3-0.1,0.6-0.3,0.9-0.6c0.2-0.3,0.4-0.6,0.6-1
				c0.1-0.4,0.2-0.9,0.2-1.5c0-0.5-0.1-0.9-0.2-1.3c-0.1-0.4-0.3-0.8-0.5-1.1c-0.2-0.3-0.5-0.5-0.9-0.7
				C341.1,469.5,340.8,469.4,340.3,469.4z"/>
			<path class="st4" d="M352.4,476.3v-4.7c0-0.7-0.2-1.2-0.5-1.6c-0.4-0.3-0.8-0.5-1.4-0.5c-0.3,0-0.6,0.1-0.8,0.2
				c-0.3,0.1-0.5,0.3-0.8,0.4c-0.3,0.2-0.5,0.4-0.7,0.6c-0.2,0.3-0.4,0.5-0.4,0.8v5.5H347l-0.6-0.6v-7.8h1.4v1.4
				c0.4-0.5,0.8-0.9,1.3-1.1c0.5-0.3,1-0.4,1.5-0.4c1,0,1.7,0.3,2.3,0.8c0.6,0.5,0.8,1.3,0.8,2.3v5.5H353L352.4,476.3z"/>
			<path class="st4" d="M363.5,468.5v7.2c0,0.6-0.1,1.2-0.2,1.8c-0.2,0.5-0.4,1-0.7,1.4c-0.3,0.4-0.8,0.7-1.3,0.9
				c-0.5,0.2-1.2,0.3-2,0.3c-0.5,0-1-0.1-1.5-0.2c-0.5-0.1-0.9-0.3-1.3-0.5l0.4-1c0.4,0.2,0.7,0.3,1.1,0.4c0.4,0.1,0.8,0.1,1.3,0.1
				c0.4,0,0.8-0.1,1.2-0.2c0.4-0.1,0.7-0.3,0.9-0.5c0.2-0.3,0.4-0.6,0.6-0.9c0.1-0.4,0.2-0.9,0.2-1.4v-0.4c-0.2,0.3-0.4,0.5-0.6,0.7
				c-0.2,0.2-0.5,0.3-0.7,0.4c-0.3,0.1-0.5,0.2-0.8,0.2c-0.3,0-0.6,0.1-0.8,0.1c-0.5,0-0.9-0.1-1.4-0.3c-0.4-0.2-0.8-0.5-1.2-0.8
				c-0.4-0.4-0.6-0.8-0.8-1.4c-0.2-0.5-0.3-1.2-0.3-2c0-0.6,0.1-1.2,0.3-1.7c0.2-0.5,0.5-1,0.8-1.4c0.3-0.4,0.7-0.7,1.2-0.9
				c0.4-0.2,0.9-0.3,1.5-0.3c0.5,0,1,0.1,1.5,0.3c0.5,0.2,0.9,0.5,1.2,0.9v-1.1H363.5z M362.1,472c0-0.3-0.1-0.6-0.2-0.9
				c-0.1-0.3-0.3-0.6-0.5-0.8c-0.2-0.2-0.5-0.4-0.8-0.6c-0.3-0.1-0.6-0.2-0.9-0.2c-0.5,0-0.9,0.1-1.2,0.2c-0.4,0.2-0.6,0.4-0.8,0.7
				c-0.2,0.3-0.4,0.6-0.5,1c-0.1,0.4-0.2,0.8-0.2,1.2c0,1,0.2,1.8,0.7,2.4c0.4,0.6,1.1,0.9,1.9,0.9c0.3,0,0.7-0.1,1-0.2
				c0.3-0.1,0.6-0.3,0.8-0.5c0.2-0.2,0.4-0.5,0.5-0.8c0.1-0.3,0.2-0.6,0.2-0.9V472z"/>
			<path class="st4" d="M369.4,477.1c-0.5,0-1.1-0.1-1.6-0.3c-0.5-0.2-0.9-0.5-1.3-0.8c-0.4-0.4-0.7-0.8-0.9-1.4
				c-0.2-0.5-0.3-1.2-0.3-1.9c0-0.7,0.1-1.4,0.3-1.9c0.2-0.5,0.5-1,0.9-1.4c0.4-0.4,0.8-0.6,1.3-0.8c0.5-0.2,1-0.3,1.6-0.3
				c0.5,0,1.1,0.1,1.6,0.3c0.5,0.2,0.9,0.5,1.3,0.8c0.4,0.4,0.7,0.8,0.9,1.4c0.2,0.6,0.3,1.2,0.3,1.9c0,0.7-0.1,1.3-0.3,1.9
				c-0.2,0.5-0.5,1-0.9,1.4c-0.4,0.4-0.8,0.6-1.3,0.8C370.4,477,369.9,477.1,369.4,477.1z M369.4,469.4c-0.4,0-0.8,0.1-1.1,0.2
				c-0.4,0.2-0.6,0.4-0.8,0.7c-0.2,0.3-0.4,0.7-0.5,1.1c-0.1,0.4-0.2,0.8-0.2,1.3c0,0.6,0.1,1.1,0.2,1.5c0.1,0.4,0.3,0.7,0.6,1
				c0.2,0.3,0.5,0.5,0.9,0.6c0.3,0.1,0.7,0.2,1,0.2c0.4,0,0.7-0.1,1-0.2c0.3-0.1,0.6-0.3,0.9-0.6c0.2-0.3,0.4-0.6,0.6-1
				c0.1-0.4,0.2-0.9,0.2-1.5c0-0.5-0.1-0.9-0.2-1.3c-0.1-0.4-0.3-0.8-0.5-1.1c-0.2-0.3-0.5-0.5-0.9-0.7
				C370.2,469.5,369.8,469.4,369.4,469.4z"/>
			<path class="st4" d="M378.4,464.9c0.9,0,1.7,0.2,2.4,0.4c0.7,0.3,1.3,0.7,1.7,1.3c0.5,0.5,0.8,1.2,1.1,1.9
				c0.2,0.7,0.4,1.5,0.4,2.4c0,0.9-0.1,1.7-0.4,2.4c-0.3,0.7-0.6,1.4-1.1,1.9c-0.5,0.5-1.1,1-1.7,1.3c-0.7,0.3-1.5,0.4-2.4,0.4h-1.9
				l-1.1-1.2v-10.8H378.4z M378.6,475.6c0.5,0,1-0.1,1.4-0.3c0.4-0.2,0.9-0.4,1.3-0.8c0.4-0.4,0.7-0.9,0.9-1.5
				c0.2-0.6,0.3-1.3,0.3-2.2c0-0.8-0.1-1.6-0.4-2.2c-0.2-0.6-0.5-1.1-0.9-1.5c-0.4-0.4-0.8-0.6-1.3-0.8c-0.5-0.2-1-0.3-1.5-0.3h-1.6
				v9.5H378.6z"/>
			<path class="st4" d="M390.1,464.9c1.2,0,2.1,0.3,2.8,0.8c0.7,0.5,1,1.3,1,2.3c0,0.6-0.1,1.1-0.4,1.6c-0.2,0.5-0.6,0.8-1.2,1.1
				c0.7,0.2,1.3,0.5,1.6,1c0.3,0.5,0.5,1.1,0.5,1.8c0,1.2-0.3,2-1,2.6c-0.7,0.6-1.6,0.9-2.7,0.9h-3.4l-1.1-1.2v-10.8H390.1z
				 M387.6,470.1h2.5c0.7,0,1.2-0.2,1.7-0.5c0.4-0.4,0.7-0.9,0.7-1.6c0-0.3-0.1-0.6-0.2-0.8c-0.1-0.2-0.3-0.4-0.5-0.6
				c-0.2-0.1-0.5-0.2-0.8-0.3c-0.3-0.1-0.6-0.1-0.9-0.1h-2.5V470.1z M387.6,471.4v4.3h2.9c0.4,0,0.7,0,1-0.1
				c0.3-0.1,0.6-0.2,0.8-0.4c0.2-0.2,0.4-0.4,0.5-0.7c0.1-0.3,0.2-0.6,0.2-1c0-0.7-0.2-1.2-0.7-1.5c-0.5-0.3-1.1-0.5-1.8-0.5H387.6z
				"/>
		</g>
	</g>
	<line class="st5" x1="182.3" y1="373" x2="398" y2="373"/>
	<path class="st6" d="M432.5,221.8c0.9,6.2,1.2,25.3-11.6,39.9c-4.2,4.7-13.3,12.9-42.7,17c-17.7,2.4-46.4,3.9-82.3-5.8
		c0,0-104,36.8-130.2-38.7S210.3,56.7,295.9,66.5c17.9,2,42.9,20.8,56.8,44.4c3.6,6.2,5.8,11.8,7.7,17c5.6,15.8,17.4,28.5,32.6,35.7
		C407.3,170.4,427.5,186.2,432.5,221.8z"/>
	<g class="st3">
		<path class="st1" d="M228.4,144.9c0.3,0.5,0.3,0.7-0.3,1.1c-3.8,2.6-7.6,3.7-10.8,3.2c-3.3-0.4-6-2.5-7.9-6.2
			c-1.3-2.5-1.6-4.9-1.1-7c0.5-2.1,1.7-3.9,3.3-5.4c1.6-1.5,3.7-2.7,5.9-3.6c0.5-0.2,0.8-0.2,1.1,0.3l2,4.1c0.2,0.5,0.1,0.7-0.4,0.9
			c-2.2,1-3.8,2.1-4.5,3.3c-0.8,1.3-0.7,2.8,0.2,4.6c0.7,1.5,1.8,2.4,3.3,2.6c1.4,0.2,3.3-0.4,5.8-2.1c0.6-0.4,0.8-0.2,1.1,0.2
			L228.4,144.9z"/>
		<path class="st1" d="M243.3,135.7c-0.8,2.5-2.7,4.5-5,5.7c-2.3,1.2-5,1.5-7.5,0.7c-2.5-0.8-4.9-2.8-6.6-6.2
			c-1.7-3.4-1.9-6.4-1.1-8.9c0.8-2.5,2.6-4.5,5-5.7c2.3-1.2,5-1.5,7.5-0.7c2.5,0.9,4.8,2.8,6.5,6.2
			C244,130.1,244.1,133.2,243.3,135.7z M231,126.8c-1.8,0.9-2,2.8-0.5,5.9c1.6,3.1,3.2,4,5,3c1.8-0.9,2-2.7,0.5-5.8
			C234.4,126.8,232.8,125.9,231,126.8z"/>
		<path class="st1" d="M251.8,110.9c-0.1-1,0-1.2,0.8-1.6l3.5-1.8c0.8-0.4,1.4-0.4,2,0.6l10.4,16c0.4,0.6,0.5,0.8,0,1.2l-3.7,2.6
			c-0.6,0.4-0.8,0.3-1.1-0.1l-4.9-7.5l1.9,8.4c0.1,0.7,0,1.1-0.6,1.4l-2.9,1.5c-0.6,0.3-1,0.2-1.5-0.3l-5.6-6.5l3.1,8.4
			c0.1,0.5,0.1,0.7-0.6,0.9l-4.3,1.4c-0.6,0.2-0.7,0-1-0.7l-6.7-17.8c-0.4-1.1-0.1-1.5,0.7-2l3.5-1.8c0.8-0.4,1-0.4,1.7,0.3l7,7.3
			L251.8,110.9z"/>
		<path class="st1" d="M274.7,99.3c-0.1-1,0-1.2,0.8-1.6l3.5-1.8c0.8-0.4,1.4-0.4,2,0.6l10.4,16c0.4,0.6,0.5,0.8,0,1.2l-3.7,2.6
			c-0.6,0.4-0.8,0.3-1.1-0.1l-4.9-7.5l1.9,8.4c0.1,0.7,0,1.1-0.6,1.4l-2.9,1.5c-0.6,0.3-1,0.2-1.5-0.3l-5.6-6.5l3.1,8.4
			c0.1,0.5,0.1,0.7-0.6,0.9l-4.3,1.4c-0.6,0.2-0.7,0-1-0.7l-6.7-17.8c-0.4-1.1-0.1-1.5,0.7-2l3.5-1.8c0.8-0.4,1-0.4,1.7,0.3l7,7.3
			L274.7,99.3z"/>
		<path class="st1" d="M284.3,94.7c-0.5-0.9-0.3-1.3,0.4-1.7l3.8-1.9c0.8-0.4,1.1-0.2,1.6,0.7l9,17c0.5,0.9,0.4,1.3-0.4,1.7
			l-3.8,1.9c-0.7,0.4-1.1,0.2-1.6-0.7L284.3,94.7z"/>
		<path class="st1" d="M299.1,92.4l-4.2,2.1c-0.7,0.4-1.2,0.3-1.6-0.4l-1.7-3.4c-0.4-0.7-0.2-1.2,0.6-1.5l14.3-7.3
			c0.7-0.4,1.2-0.3,1.6,0.4l1.7,3.4c0.4,0.7,0.2,1.2-0.6,1.5l-4.3,2.2l6.7,12.9c0.5,0.9,0.4,1.3-0.4,1.7l-3.8,1.9
			c-0.7,0.4-1.1,0.2-1.6-0.7L299.1,92.4z"/>
	</g>
	<g class="st3">
		<path class="st1" d="M370.7,172.8c1.1-0.6,1.6-0.9,2.2-0.9c0.5,0,1,0.5,1.8,1.5c1.7,1.9,3.6,4.8,5,7.9c1.4,3.1,2.2,6.5,1.9,9.5
			c-0.3,3-1.8,5.7-5.2,7.4c-4.5,2.3-8.2,2.1-11.2,0.6c-3.1-1.6-5.5-4.5-7.4-7.9l-6.6,3.5c-1.4,0.7-2,0.6-2.6-0.6l-2.8-5.4
			c-0.6-1.1-0.3-1.7,1-2.4L370.7,172.8z M373.2,187.3c0-1.2-0.7-2.5-1.6-3.7l-6.3,3.4c1.8,3.2,3.9,4.3,6.2,3.1
			C372.7,189.5,373.2,188.5,373.2,187.3z"/>
		<path class="st1" d="M381.2,227.5c-3.8,2.2-7.3,3.1-10.4,2.5c-3.1-0.6-5.7-3-7.9-7.3c-4.1-8.1-2.3-13.4,5.2-17.3l16.7-8.8
			c1.4-0.7,2-0.5,2.6,0.6l2.9,5.7c0.6,1.2,0.4,1.7-1,2.4l-16.3,8.5c-2.4,1.3-3.1,2.9-2,4.8c0.6,1.1,1.3,1.4,2.3,1.3
			c0.9-0.1,1.9-0.6,3.2-1.3l15.2-8.5c1.4-0.7,2-0.5,2.6,0.6l2.9,5.7c0.6,1.2,0.3,1.6-1,2.4L381.2,227.5z"/>
		<path class="st1" d="M381.5,238.8c0.3,1.3,0.8,2.6,1.3,3.6c0.5,1.1,1.2,1.5,2.2,1c0.9-0.5,1.1-1.3,0.9-4.4c-0.1-2.5-0.3-5,0.4-7.2
			c0.6-2.3,2.1-4.2,5-5.7c2.4-1.2,5-1.4,7.6-0.5c2.5,0.9,5,3.1,6.8,6.7c1.6,3.2,2.6,6.1,3,9.7c0,0.8-0.1,1.1-1.1,1.5l-6,2.4
			c-0.8,0.3-1.2,0-1.2-0.9c-0.1-3-1-6-1.9-7.9c-0.8-1.6-1.7-2.5-2.8-1.9c-0.6,0.3-0.9,1-0.9,2.1c-0.1,1.1,0.1,2.7,0.1,4.7
			c0,2.2-0.1,4.2-0.8,5.9c-0.8,1.8-2.2,3.4-4.7,4.6c-2.8,1.4-5.5,1.6-7.8,0.6c-2.4-1-4.4-3-5.9-5.9c-1.8-3.6-2.7-6.9-3.1-9.6
			c-0.1-1.1,0-1.4,0.8-1.7l6.3-1.8c0.8-0.3,1.3,0.1,1.4,1C380.9,236.2,381.2,237.5,381.5,238.8z"/>
		<path class="st1" d="M409.7,245.7c1.4-0.7,2-0.5,2.6,0.6l2.9,5.7c0.6,1.2,0.3,1.7-1,2.4l-8.6,4.5l2.8,5.5l8.6-4.4
			c1.4-0.7,2-0.5,2.6,0.6l2.9,5.7c0.6,1.2,0.4,1.7-1,2.4l-25.7,13c-1.4,0.7-2,0.6-2.6-0.6l-2.9-5.7c-0.6-1.1-0.4-1.7,1-2.4l9.1-4.6
			l-2.7-5.3l-9,4.8c-1.4,0.7-2,0.6-2.6-0.6l-2.9-5.7c-0.6-1.1-0.3-1.7,1-2.4L409.7,245.7z"/>
	</g>
	<g class="st3">
		<path class="st1" d="M240.7,209.9c-1.6,2.6-3.7,4.7-6.7,6.2c-2,1-4.1,1.5-6.1,1.1s-3.8-1.6-5.1-4.2c-1.6-3.1-1.4-5.7-0.3-8.6
			c-2.7-1-5.5-2.7-7.2-6c-1.1-2.2-1.2-4.6-0.2-6.8c1-2.2,3-4.2,6.2-5.9c2.6-1.3,5.3-1.8,7.5-1.3c2.2,0.5,4.1,1.9,5.3,4.3
			c1,2,1.2,3.9,0.9,5.8c-0.3,1.9-1,3.7-2,5.4l3.4,0.9c0.2-1.1,0.4-2.4,0.5-3.8c0.2-1.1,0.6-1.3,1.5-1.1l4.1,0.6
			c1.1,0.2,1.2,0.9,1.1,1.9c-0.1,1.5-0.3,2.9-0.5,4.2l2.6,0.7c1.3,0.3,1.5,0.7,1.1,2.1l-1.1,4.2c-0.4,1.3-1,1.4-2.4,1L240.7,209.9z
			 M226.1,197.9c0.9-1.6,1.7-3.2,1-4.6c-0.6-1.2-1.9-1.7-3.1-1.1c-1.2,0.6-1.5,2-0.9,3.1C223.8,196.8,224.8,197.4,226.1,197.9z
			 M234.2,207.9l-4.8-1.4c-0.4,0.9-0.4,1.7,0,2.4c0.5,1,1.7,1.3,2.9,0.6C233,209.2,233.6,208.8,234.2,207.9z"/>
	</g>
	<g>
		<g>
			<g>
				<defs>
					<circle id="SVGID_1_" cx="298" cy="185.6" r="122.9"/>
				</defs>
				<clipPath id="SVGID_2_">
					<use xlink:href="#SVGID_1_"  style="overflow:visible;"/>
				</clipPath>
				<g class="st7">
					<path class="st8" d="M280.6,202.9"/>
					<path class="st8" d="M281.5,209.1"/>
					<path class="st9" d="M281.9,212.9l-1.3-9.9l43.3-9.9l3.7,14.2c-3.2,3-11.8,10-24.8,11.8c-9.3,1.3-10.3-0.2-14.4-1.5
						C285.8,216.8,281.9,214.3,281.9,212.9"/>
					<path class="st10" d="M375.8,268.7c-4.2-28.4-14.7-44.3-24.9-53.2c1-1,1.6-2.1,1.7-2.4c0.4-0.8,1.5-2.9,0.8-5.5
						c-0.4-1.8-1.5-3-2.1-3.6c-2.9-3-7-3-8.1-3c-0.2-1.5-4.5-3.2-4.5-3.2c-0.8-0.5-3.6-2.2-7.5-1.7c-3,0.4-5,1.9-5.8,2.5l0.8,3
						c2.1-0.3,2.9-0.7,3-0.4c0,0.1,0,0.2,0,0.3c-0.5,0.6-1.1,1.5-2,2.4c-0.3,0.1-0.5,0.1-0.8,0.2c-0.9,0.2-1.8,0.5-2.7,0.8
						c-5.9,1.8-10.2,4.1-13.1,5.9c-5.1,3.2-7.6,5.9-11.9,5.6c-2.9-0.2-4-1.6-9.3-2.7c-3.1-0.7-5.7-0.9-7.5-0.9
						c-0.9-0.2-1.5-1.1-1.6-1.9c0-0.5,0.3-0.7,1.1-1.4c-0.5,0-1.8,0-2.9,0.8c-0.4,0.3-0.9,0.7-1.1,1.4c-0.2,0.8,0.2,1.7,0.8,2.1
						c0,0,0.1,0.1,1.2,0.7c0,0-0.1-0.1-0.4-0.2c-24.8,15.3-40.1,89.6-40.1,89.6c14.6,5.2,42.4,13,77.3,9c29.7-3.4,52-13.8,64.9-21.1
						C379.4,284.1,377.6,276.4,375.8,268.7z"/>
					<path class="st11" d="M281.9,212.9"/>
					<path class="st12" d="M280.9,158.4c-0.2-0.3-0.4-0.5-0.6-0.8C280.5,157.9,280.7,158.2,280.9,158.4z"/>
					<path class="st12" d="M279.6,156.5c-0.2-0.3-0.3-0.6-0.4-0.9C279.3,155.9,279.5,156.2,279.6,156.5z"/>
					<path class="st12" d="M280.2,157.5c-0.2-0.3-0.4-0.5-0.5-0.8C279.9,157,280,157.2,280.2,157.5z"/>
					<path class="st12" d="M282,156.2c0.3,0.3,0.6,0.7,0.9,1C282.6,156.9,282.3,156.6,282,156.2z"/>
					<path class="st12" d="M298.4,158.8c-0.2-0.2-0.4-0.4-0.7-0.6C298,158.4,298.2,158.6,298.4,158.8z"/>
					<path class="st12" d="M275.5,165c0.6,0.1,1.3,0.1,2,0.1C276.8,165.1,276.1,165,275.5,165z"/>
					<path class="st12" d="M281.6,159.3c-0.2-0.2-0.4-0.5-0.6-0.8C281.2,158.8,281.4,159,281.6,159.3z"/>
					<path class="st12" d="M280.2,154c0.2,0.3,0.5,0.6,0.7,0.9C280.7,154.6,280.4,154.3,280.2,154z"/>
					<path class="st12" d="M273.7,164.8c0.4,0.1,0.8,0.1,1.2,0.1C274.5,164.9,274.1,164.8,273.7,164.8z"/>
					<path class="st12" d="M279.1,155.5c-0.1-0.3-0.3-0.6-0.3-1C278.9,154.9,279,155.2,279.1,155.5z"/>
					<path class="st12" d="M279.6,153.1c0.2,0.3,0.4,0.6,0.6,0.9C280,153.7,279.8,153.4,279.6,153.1z"/>
					<path class="st12" d="M278.5,153.4C278.5,153.4,278.6,153.4,278.5,153.4C278.5,153.4,278.5,153.3,278.5,153.4
						C278.5,153.3,278.5,153.3,278.5,153.4z"/>
					<path class="st12" d="M278.8,154.5c-0.1-0.3-0.2-0.6-0.2-1C278.6,153.9,278.7,154.2,278.8,154.5z"/>
					<path class="st12" d="M282.3,160c-0.2-0.2-0.4-0.5-0.7-0.7C281.9,159.6,282.1,159.8,282.3,160z"/>
					<path class="st12" d="M261.7,156.3c0.1,0.2,0.2,0.4,0.3,0.5C261.9,156.6,261.8,156.4,261.7,156.3z"/>
					<path class="st12" d="M261.2,155.2c0.1,0.2,0.2,0.4,0.3,0.6C261.4,155.5,261.3,155.4,261.2,155.2z"/>
					<path class="st12" d="M272,164.4c0.3,0.1,0.7,0.1,1,0.2C272.7,164.5,272.3,164.5,272,164.4z"/>
					<path class="st12" d="M263,158.4c0.1,0.2,0.3,0.3,0.4,0.5C263.2,158.7,263.1,158.5,263,158.4z"/>
					<path class="st12" d="M260.8,154.1c0.1,0.2,0.1,0.4,0.2,0.6C260.9,154.5,260.9,154.3,260.8,154.1z"/>
					<path class="st12" d="M262.3,157.3c0.1,0.2,0.2,0.4,0.3,0.5C262.5,157.7,262.4,157.5,262.3,157.3z"/>
					<path class="st12" d="M263.7,159.3c0.1,0.2,0.3,0.3,0.4,0.5C264,159.7,263.9,159.5,263.7,159.3z"/>
					<path class="st12" d="M267.8,162.7c0.2,0.1,0.5,0.2,0.7,0.4C268.2,163,268,162.9,267.8,162.7z"/>
					<path class="st12" d="M270.5,163.9c0.3,0.1,0.6,0.2,0.9,0.3C271.1,164.1,270.7,164,270.5,163.9z"/>
					<path class="st12" d="M269,163.4c0.3,0.1,0.5,0.2,0.8,0.3C269.6,163.6,269.3,163.5,269,163.4z"/>
					<path class="st12" d="M266.6,162c0.2,0.1,0.4,0.3,0.6,0.4C267,162.3,266.8,162.1,266.6,162z"/>
					<path class="st12" d="M265.5,161.2c0.2,0.2,0.4,0.3,0.6,0.4C265.9,161.5,265.7,161.3,265.5,161.2z"/>
					<path class="st12" d="M281.1,155.1c0.2,0.3,0.5,0.6,0.8,0.9C281.6,155.7,281.3,155.4,281.1,155.1z"/>
					<path class="st12" d="M328.9,189.9c-0.1,0.2-0.3,0.3-0.4,0.5C328.7,190.2,328.8,190.1,328.9,189.9z"/>
					<path class="st12" d="M310.3,159.6C310.3,159.6,310.2,159.6,310.3,159.6L310.3,159.6L310.3,159.6z"/>
					<path class="st12" d="M332.3,183.6c-0.1,0.2-0.2,0.5-0.3,0.7C332.1,184.1,332.2,183.8,332.3,183.6z"/>
					<path class="st12" d="M329.9,188.4c-0.1,0.2-0.3,0.4-0.4,0.6C329.6,188.8,329.8,188.6,329.9,188.4z"/>
					<path class="st12" d="M331.6,185.3c-0.1,0.2-0.2,0.4-0.3,0.6C331.4,185.7,331.5,185.5,331.6,185.3z"/>
					<path class="st12" d="M330.8,186.9c-0.1,0.2-0.3,0.5-0.4,0.7C330.5,187.3,330.7,187.1,330.8,186.9z"/>
					<path class="st12" d="M295.6,153.8C295.5,153.8,295.5,153.8,295.6,153.8C295.5,153.8,295.5,153.8,295.6,153.8z"/>
					<path class="st12" d="M260.5,153c0,0.2,0.1,0.3,0.2,0.5c-0.1-0.2-0.1-0.4-0.2-0.6c-0.1-0.5-0.8-0.4-0.9,0.1v0.1
						C259.6,152.6,260.3,152.5,260.5,153z"/>
					<path class="st12" d="M297.1,157.5c-0.1-0.1-0.1-0.2-0.2-0.2C296.9,157.3,297,157.4,297.1,157.5z"/>
					<path class="st12" d="M297.4,162.7L297.4,162.7L297.4,162.7L297.4,162.7z"/>
					<path class="st12" d="M265.1,160.8c-0.2-0.2-0.3-0.3-0.5-0.5C264.7,160.4,264.9,160.6,265.1,160.8z"/>
					<path class="st12" d="M294.6,152.8C294.7,152.8,294.7,152.8,294.6,152.8c0,0,0-0.1-0.1-0.1c-0.2-0.2-0.5,0-0.4,0.3
						c0,0,0,0.1,0.1,0.1C294.1,152.8,294.4,152.6,294.6,152.8z"/>
					<path class="st12" d="M294.4,153.6c0-0.1-0.1-0.2-0.1-0.3C294.4,153.4,294.4,153.5,294.4,153.6z"/>
					<path class="st12" d="M295.1,154.8c-0.1-0.1-0.1-0.2-0.2-0.3C295,154.6,295,154.7,295.1,154.8z"/>
					<path class="st12" d="M294.7,154.2c-0.1-0.1-0.1-0.2-0.2-0.3C294.6,154,294.7,154.1,294.7,154.2z"/>
					<path class="st12" d="M332.8,181.9c-0.1,0.2-0.2,0.4-0.2,0.7C332.7,182.3,332.8,182.1,332.8,181.9z"/>
					<path class="st12" d="M295.5,155.5c-0.1-0.1-0.1-0.2-0.2-0.3C295.4,155.3,295.4,155.4,295.5,155.5z"/>
					<path class="st12" d="M296,156.1c-0.1-0.1-0.1-0.2-0.2-0.3C295.8,155.9,295.9,156,296,156.1z"/>
					<path class="st12" d="M296.5,156.8c-0.1-0.1-0.1-0.2-0.2-0.3C296.4,156.6,296.4,156.7,296.5,156.8z"/>
					<path class="st12" d="M309.5,155.4c-0.1-0.1-0.1-0.2-0.2-0.2C309.3,155.2,309.4,155.3,309.5,155.4z"/>
					<path class="st12" d="M296.6,154.8L296.6,154.8L296.6,154.8z"/>
					<path class="st12" d="M333.3,180.1c-0.1,0.2-0.1,0.5-0.2,0.7C333.2,180.6,333.2,180.4,333.3,180.1z"/>
					<path class="st12" d="M310.1,156.1c-0.1-0.1-0.2-0.2-0.2-0.2C309.9,156,310,156,310.1,156.1z"/>
					<path class="st12" d="M310.7,156.7c-0.1-0.1-0.2-0.1-0.2-0.2C310.5,156.6,310.6,156.6,310.7,156.7z"/>
					<path class="st12" d="M297.8,155.8L297.8,155.8L297.8,155.8z"/>
					<path class="st10" d="M354.3,157.6c0,0-3-56.3-55.1-52.1c0,0-25.5,1.7-28.7,21.7c0,0-28.1,7.8-16.5,40.4
						c1.1,3.1,2.1,5.5,2.9,8.5c0.4,1.5,0.8,3.5,1,5.7c0.2,2.5,0.2,6.6-1.7,11.7c0.9,0.5,2.8,1.4,5.5,1.3c1.7-0.1,3-0.6,3.8-1
						c0-0.2-0.1-0.4-0.1-0.6c0-0.6-0.1-1.4-0.2-2.2c-0.6-3.5-2.3-8.6-3.9-12.7l0,0l0,0c-0.4-1.1-0.8-2.1-1.2-3
						c-2.1-6.4-2.1-12.5-1.5-17.2l0.8-5l0,0V153c0.1-0.5,0.7-0.5,0.9-0.1c0.1,0.2,0.1,0.4,0.2,0.6c0.1,0.2,0.1,0.4,0.2,0.5
						c0.1,0.2,0.1,0.4,0.2,0.6c0.1,0.2,0.1,0.4,0.2,0.5c0.1,0.2,0.2,0.4,0.3,0.6c0.1,0.2,0.2,0.4,0.2,0.5c0.1,0.2,0.2,0.4,0.3,0.5
						c0.1,0.2,0.2,0.3,0.3,0.5c0.1,0.2,0.2,0.4,0.3,0.5c0.1,0.2,0.2,0.3,0.3,0.5c0.1,0.2,0.3,0.3,0.4,0.5s0.2,0.3,0.4,0.5
						c0.1,0.2,0.3,0.3,0.4,0.5s0.3,0.3,0.4,0.4c0.2,0.2,0.3,0.3,0.5,0.5c0.2,0.1,0.3,0.3,0.5,0.4c0.2,0.2,0.4,0.3,0.6,0.4
						c0.2,0.1,0.3,0.3,0.5,0.4c0.2,0.1,0.4,0.3,0.6,0.4c0.2,0.1,0.4,0.2,0.5,0.3c0.2,0.1,0.5,0.2,0.7,0.4c0.2,0.1,0.4,0.2,0.6,0.3
						c0.3,0.1,0.5,0.2,0.8,0.3c0.2,0.1,0.4,0.2,0.6,0.2c0.3,0.1,0.6,0.2,0.9,0.3c0.2,0.1,0.4,0.1,0.6,0.2c0.3,0.1,0.7,0.1,1,0.2
						c0.2,0,0.4,0.1,0.7,0.1c0.4,0.1,0.8,0.1,1.2,0.1c0.2,0,0.4,0.1,0.6,0.1c0.6,0.1,1.3,0.1,2,0.1l0,0c1.6,0.1,2.8-0.1,3.5-0.3
						c2.2-0.4,3-3.1,1.4-4.7c0,0,0,0-0.1-0.1c-0.2-0.2-0.4-0.5-0.7-0.7c0,0,0,0-0.1-0.1c-0.2-0.2-0.4-0.5-0.6-0.8c0,0,0,0,0-0.1
						c-0.2-0.3-0.4-0.5-0.6-0.8l-0.1-0.1c-0.2-0.3-0.4-0.5-0.5-0.8c0-0.1-0.1-0.1-0.1-0.2c-0.2-0.3-0.3-0.6-0.4-0.9
						c0,0,0-0.1-0.1-0.1c-0.1-0.3-0.3-0.6-0.3-1l0,0c-0.1-0.3-0.2-0.6-0.2-1V153v-0.1v-0.1c0-0.3-0.1-0.6-0.1-0.9
						c0-0.3,0.4-0.4,0.6-0.2c0.2,0.3,0.3,0.6,0.5,0.9c0.2,0.3,0.4,0.6,0.6,0.9l0,0c0.2,0.3,0.5,0.6,0.7,0.9c0,0.1,0.1,0.1,0.1,0.2
						c0.2,0.3,0.5,0.6,0.8,0.9c0.1,0.1,0.1,0.1,0.2,0.2c0.3,0.3,0.6,0.7,0.9,1c2.7,2.7,5.6,4.3,7.5,5.1c1.4,0.4,3.9,0.9,6.9,0.4h0.1
						c1.8-0.4,2.4-2.7,1-3.9l0,0c-0.2-0.2-0.4-0.4-0.7-0.6c-0.2-0.2-0.4-0.4-0.7-0.7c-0.1-0.1-0.1-0.2-0.2-0.2
						c-0.1-0.1-0.3-0.3-0.4-0.4c-0.1-0.1-0.1-0.2-0.2-0.3s-0.2-0.3-0.3-0.4c-0.1-0.1-0.1-0.2-0.2-0.3s-0.2-0.3-0.3-0.4
						c-0.1-0.1-0.1-0.2-0.2-0.3s-0.2-0.2-0.2-0.4c-0.1-0.1-0.1-0.2-0.2-0.3s-0.1-0.2-0.2-0.3s-0.1-0.2-0.2-0.3s-0.1-0.2-0.2-0.3
						c0-0.1-0.1-0.2-0.1-0.3s-0.1-0.2-0.1-0.2l0,0c0,0,0-0.1-0.1-0.1c-0.1-0.3,0.2-0.5,0.4-0.3c0,0.1,0.1,0.1,0.1,0.2
						c0.2,0.3,0.5,0.6,0.8,0.9l0.1,0.1c0.3,0.3,0.6,0.6,1,0.9c0,0,0,0,0.1,0.1c0.4,0.3,0.7,0.7,1.2,1l0,0c0.4,0.3,0.9,0.7,1.4,1
						c2.6,1.7,5,2.6,6.7,3.1c0.9,0.1,2.5,0.2,4.3-0.3l0,0c1.2-0.4,1.5-1.9,0.6-2.7c-0.1-0.1-0.1-0.1-0.2-0.2
						c-0.1-0.1-0.2-0.1-0.2-0.2c-0.1-0.1-0.2-0.2-0.4-0.4c-0.1-0.1-0.2-0.2-0.2-0.2c-0.1-0.1-0.3-0.3-0.4-0.5
						c-0.1-0.1-0.1-0.2-0.2-0.2c-0.2-0.2-0.4-0.5-0.6-0.8c-1-1.5-1.5-3-1.7-4c4.5,6.6,8.4,8.4,11.1,8.8c2.3,0.3,4.4-0.1,6.5,1.4
						c3.1,2.2,3.3,6.4,3.9,6.3c0.5-0.1-0.4-4.1,0.4-8.4c0.5-2.7,1.6-5,2.8-6.8c1.1-1,2.5-1.5,4.5-1.3c8.4,0.8,14.6,17.7-2.5,27.9
						c-0.1,0.6-0.2,1.2-0.3,1.8c-0.1,0.2-0.1,0.5-0.2,0.7c-0.1,0.3-0.2,0.7-0.3,1c-0.1,0.2-0.2,0.4-0.2,0.7c-0.1,0.3-0.2,0.7-0.3,1
						c-0.1,0.2-0.2,0.5-0.3,0.7c-0.1,0.3-0.3,0.6-0.4,0.9c-0.1,0.2-0.2,0.4-0.3,0.6c-0.2,0.3-0.3,0.7-0.5,1
						c-0.1,0.2-0.3,0.5-0.4,0.7c-0.2,0.3-0.3,0.6-0.5,0.9c-0.1,0.2-0.3,0.4-0.4,0.6c-0.2,0.3-0.4,0.6-0.6,0.9
						c-0.1,0.2-0.3,0.3-0.4,0.5c-0.2,0.3-0.4,0.6-0.7,0.9l0,0l0,0l0,0c1.6,0.2,3.9,0.3,6.6-0.2c3.1-0.6,5.5-1.9,6.9-2.8
						C356.1,173.8,354.3,157.6,354.3,157.6z"/>
					<path class="st9" d="M328.5,190.4c0.1-0.2,0.3-0.3,0.4-0.5c0.2-0.3,0.4-0.6,0.6-0.9c0.1-0.2,0.3-0.4,0.4-0.6
						c0.2-0.3,0.3-0.6,0.5-0.9c0.1-0.2,0.3-0.5,0.4-0.7c0.2-0.3,0.3-0.6,0.5-1c0.1-0.2,0.2-0.4,0.3-0.6c0.1-0.3,0.3-0.6,0.4-0.9
						c0.1-0.2,0.2-0.5,0.3-0.7c0.1-0.3,0.2-0.7,0.3-1c0.1-0.2,0.2-0.4,0.2-0.7c0.1-0.3,0.2-0.7,0.3-1c0.1-0.2,0.1-0.5,0.2-0.7
						c0.1-0.6,0.2-1.2,0.3-1.8c17.2-10.1,11-27,2.5-27.9c-2-0.2-3.4,0.4-4.5,1.3c-1.2,1.8-2.3,4-2.8,6.8c-0.8,4.3,0.1,8.3-0.4,8.4
						c-0.6,0.1-0.8-4.1-3.9-6.3c-2.1-1.5-4.1-1.1-6.5-1.4c-2.8-0.3-6.6-2.1-11.1-8.8c0.2,1,0.7,2.5,1.7,4c0.2,0.3,0.4,0.5,0.6,0.8
						c0.1,0.1,0.1,0.2,0.2,0.2c0.1,0.2,0.3,0.3,0.4,0.5c0.1,0.1,0.2,0.2,0.2,0.2c0.1,0.1,0.2,0.3,0.4,0.4c0.1,0.1,0.2,0.2,0.2,0.2
						c0.1,0.1,0.1,0.1,0.2,0.2c0.9,0.8,0.6,2.3-0.6,2.7l0,0l0,0c-1.8,0.6-3.4,0.5-4.3,0.3c-1.7-0.5-4.1-1.4-6.7-3.1
						c-0.5-0.3-0.9-0.7-1.4-1l0,0c-0.4-0.3-0.8-0.7-1.2-1c0,0,0,0-0.1-0.1c-0.4-0.3-0.7-0.6-1-0.9l-0.1-0.1
						c-0.3-0.3-0.6-0.6-0.8-0.9c0,0,0,0,0-0.1c-0.2-0.2-0.5,0-0.4,0.3l0,0c0,0.1,0.1,0.1,0.1,0.2c0,0.1,0.1,0.2,0.1,0.3
						s0.1,0.2,0.2,0.3c0,0.1,0.1,0.2,0.2,0.3s0.1,0.2,0.2,0.3s0.1,0.2,0.2,0.3s0.1,0.2,0.2,0.4c0.1,0.1,0.1,0.2,0.2,0.3
						s0.2,0.2,0.3,0.4c0.1,0.1,0.1,0.2,0.2,0.3s0.2,0.3,0.3,0.4c0.1,0.1,0.1,0.2,0.2,0.3s0.3,0.3,0.4,0.4c0.1,0.1,0.1,0.2,0.2,0.2
						c0.2,0.2,0.4,0.4,0.7,0.7c0.2,0.2,0.4,0.4,0.7,0.6l0,0c1.4,1.2,0.9,3.6-1,3.9c0,0,0,0-0.1,0h-0.1c-3,0.5-5.6,0-6.9-0.4
						c-1.9-0.8-4.7-2.4-7.5-5.1c-0.3-0.3-0.6-0.7-0.9-1c-0.1-0.1-0.1-0.1-0.2-0.2c-0.3-0.3-0.5-0.6-0.8-0.9c0-0.1-0.1-0.1-0.1-0.2
						c-0.2-0.3-0.5-0.6-0.7-0.9l0,0c-0.2-0.3-0.4-0.6-0.6-0.9c-0.2-0.3-0.4-0.6-0.5-0.9c-0.2-0.3-0.6-0.2-0.6,0.2
						c0,0.3,0,0.6,0.1,0.9c0,0.1,0,0.1,0,0.2v0.1c0.1,0.3,0.1,0.7,0.2,1l0,0c0.1,0.3,0.2,0.6,0.3,1c0,0,0,0.1,0.1,0.1
						c0.1,0.3,0.3,0.6,0.4,0.9c0,0.1,0.1,0.1,0.1,0.2c0.2,0.3,0.3,0.6,0.5,0.8l0.1,0.1c0.2,0.3,0.4,0.5,0.6,0.8c0,0,0,0,0,0.1
						c0.2,0.3,0.4,0.5,0.6,0.8c0,0,0,0,0.1,0.1c0.2,0.2,0.4,0.5,0.7,0.7c0,0,0,0,0.1,0.1c1.6,1.6,0.8,4.3-1.4,4.7
						c-0.7,0.1-1.9,0.4-3.5,0.3l0,0c-0.7,0-1.3,0-2-0.1c-0.2,0-0.4-0.1-0.6-0.1c-0.4,0-0.8-0.1-1.2-0.1c-0.2,0-0.4-0.1-0.7-0.1
						c-0.3-0.1-0.7-0.1-1-0.2c-0.2-0.1-0.4-0.1-0.6-0.2c-0.3-0.1-0.6-0.2-0.9-0.3c-0.2-0.1-0.4-0.2-0.6-0.2
						c-0.3-0.1-0.5-0.2-0.8-0.3c-0.2-0.1-0.4-0.2-0.6-0.3s-0.5-0.2-0.7-0.4c-0.2-0.1-0.4-0.2-0.5-0.3c-0.2-0.1-0.4-0.3-0.6-0.4
						c-0.2-0.1-0.3-0.3-0.5-0.4c-0.2-0.1-0.4-0.3-0.6-0.4c-0.2-0.1-0.3-0.3-0.5-0.4c-0.2-0.2-0.3-0.3-0.5-0.5
						c-0.1-0.1-0.3-0.3-0.4-0.4c-0.1-0.2-0.3-0.3-0.4-0.5s-0.2-0.3-0.4-0.5c-0.1-0.2-0.3-0.3-0.4-0.5s-0.2-0.3-0.3-0.5
						c-0.1-0.2-0.2-0.4-0.3-0.5c-0.1-0.2-0.2-0.3-0.3-0.5c-0.1-0.2-0.2-0.4-0.3-0.5c-0.1-0.2-0.2-0.4-0.2-0.5
						c-0.1-0.2-0.2-0.4-0.3-0.6c-0.1-0.2-0.1-0.4-0.2-0.5c-0.1-0.2-0.1-0.4-0.2-0.6c-0.1-0.2-0.1-0.4-0.2-0.5
						c-0.1-0.2-0.1-0.3-0.2-0.5c-0.1-0.5-0.9-0.4-0.9,0.1l0,0l-0.8,5c-0.7,4.8-0.7,10.9,1.5,17.2c0.4,0.9,0.8,1.9,1.2,3l0,0l0,0
						c1.6,4.2,3.3,9.2,3.9,12.7c0.1,0.8,0.2,1.6,0.2,2.2c0,0.2,0,0.4,0.1,0.6c1.4,6.1,24.3,17.7,29.8,16.9
						c4.3-0.6,22.8-6.9,32.5-19.3l0,0C328.1,191,328.3,190.7,328.5,190.4z"/>
					<path class="st9" d="M313.7,177.7c-0.9,5.7-6.2,9.6-11.8,8.8s-9.6-6.2-8.8-11.8c0.9-5.7,6.5-9.1,12.1-8.3
						S314.6,172,313.7,177.7z"/>
					<circle class="st13" cx="302" cy="181.4" r="4.8"/>
					<circle class="st4" cx="301.7" cy="182.7" r="3.6"/>
					<path class="st9" d="M285.5,178.5c1.6,5.3-1.4,10.8-6.6,12.4c-5.2,1.6-10.8-1.4-12.4-6.6c-1.6-5.3,1.3-10.3,6.6-11.9
						S283.9,173.3,285.5,178.5z"/>
					<circle class="st13" cx="275.1" cy="186.6" r="4.8"/>
					<circle class="st4" cx="274.5" cy="187.7" r="3.6"/>
					<path class="st14" d="M282.9,196.7c2.4,0,5.3-0.2,8.5-0.8c3.8-0.7,7-1.8,9.6-2.8c-1.2,4.7-5.2,8-9.5,8.1
						C286.3,201.3,283.1,197,282.9,196.7z"/>
					<path class="st15" d="M269.9,190.6c0,0,3.9,3.6,10.3,1.1"/>
					<path class="st15" d="M268.9,190.9c0,0,2.5,2.1,4.9,2.2"/>
					<path class="st15" d="M303.4,187.7c0,0,6.8,0.3,9.9-5.3"/>
					<path class="st15" d="M310.8,186.6c0,0,3.2-1.5,3.7-4.6"/>
					<path class="st12" d="M282.9,216.8c0,0,12,3,14.3,4.6c0,0-6.3,2.6,0,12.9h1.3c0,0-4.9-8.9,0-11.6"/>
					<path class="st12" d="M348,215.7c-0.9,1.3-2.4,2.6-4.7,3.1c-4.6,1.1-9.4,0.6-13.6-1.4c-4.6-2.2-13.3-4.2-22.8,4
						c0,0,9.8,11,3.2,22.2l-2.1-0.8c0,0,6.1-8.6-2.8-20.4"/>
					<path class="st12" d="M343.2,201.1c0,0,1.6,4.1-4.8,5.6"/>
					<path class="st12" d="M298.3,239.9L298.3,239.9c-1,0.1-1.8-0.7-1.8-1.6l-0.1-2c-0.1-1,0.7-1.8,1.6-1.8l0,0
						c1-0.1,1.8,0.7,1.8,1.6l0.1,2C300,239,299.2,239.8,298.3,239.9z"/>
					<path class="st12" d="M307.1,248.1L307.1,248.1c-0.9-0.4-1.3-1.4-0.9-2.3l0.8-1.8c0.4-0.9,1.4-1.3,2.3-0.9l0,0
						c0.9,0.4,1.3,1.4,0.9,2.3l-0.8,1.8C309,248.1,308,248.5,307.1,248.1z"/>
					<path class="st16" d="M293.8,167.3l2.1,1.7c0,0,5.3-7.6,16.7-1.7"/>
					<line class="st16" x1="299.9" y1="166.4" x2="298.9" y2="163.9"/>
					<path class="st12" d="M304.1,163.6"/>
					<line class="st16" x1="304.3" y1="165.8" x2="305.3" y2="163.6"/>
					<line class="st16" x1="268.1" y1="174.7" x2="266" y2="173.1"/>
					<line class="st16" x1="272.2" y1="172.1" x2="271.2" y2="169.6"/>
					<line class="st16" x1="276.5" y1="171.5" x2="277.5" y2="169.3"/>
					<path class="st16" d="M277,171.5c0,0-7.5-2.7-11.7,5.5"/>
					<path class="st16" d="M335.7,181.4c0,0,0.3,7.2-4.2,10"/>
					<path class="st16" d="M343.4,173.5c0,0,0.7,10.8-4.2,16.1"/>
					<path class="st16" d="M338.5,184.1c0,0-0.8,5-3.4,6.9"/>
					<path class="st17" d="M261.2,186.4c0,0,1.3,4.3-1.2,8.3"/>
					<path class="st17" d="M263.7,191.4c0,0,0.7,2.4-1.1,3.3"/>
					<path class="st12" d="M333.2,172.1c0,0,4.6-4.6,1.9-6.3s-4.1-9,0-10.6s10.5,7.3,4.1,14.4"/>
					<path class="st12" d="M333.1,162.7c0,0,3.3-1.9,4.1,2.2"/>
					<path class="st18" d="M309.5,309.9h-82.7c-3.1,0-4.2-0.3-2.6-0.8l24.3-7c2.1-0.6,7.6-1.1,11.6-1.1h82.7c3.1,0,4.2,0.3,2.6,0.8
						l-24.3,7C319,309.3,313.4,309.9,309.5,309.9z"/>
					<path class="st19" d="M323.8,298.6c0,0-6,0.1-7.3,1.4s-2.3,4-2.3,4l-0.5,3.9c0,0,1.1,1,2,0.3c0.8-0.7,1.4,0.8,2.8,0.2
						c1.3-0.6,2.7,0.7,3.4,0.1c0.7-0.6,8-4.9,8-4.9L323.8,298.6z"/>
					<path class="st20" d="M313.5,309.3h-84c-3.2,0-5.9-2.3-6.4-5.4l-8.3-47.3c-0.7-4,2.4-7.7,6.4-7.7h84c3.2,0,5.9,2.3,6.4,5.4
						l8.3,47.3C320.6,305.7,317.6,309.3,313.5,309.3z"/>
					<path class="st21" d="M312,309.3h-82.7c-3.1,0-5.8-2.2-6.3-5.3l-8.2-46.5c-0.7-3.9,2.3-7.5,6.3-7.5h82.7c3.1,0,5.8,2.2,6.3,5.3
						l8.2,46.5C319,305.7,316,309.3,312,309.3z"/>
					<path class="st10" d="M340.9,262.7c-0.1,1.5,0,3.2,0.1,5c0.5,5.5,2.2,10,3.8,13.1c-3.9,2.4-7.8,4.9-11.8,7.6
						c-4.8,3.2-9.3,6.4-13.5,9.6c0,0,1.6,13.7,9.4,16c0,0,9.4,6.5,31.5-10.4c0,0,12.9-11.7,15.8-20.7"/>
					<path class="st16" d="M276,234.4c0,0-3.8,10-2.9,14.6"/>
					<path class="st22" d="M263.5,267.6c0,0-1.8-2,2.1-3.5C265.6,264.1,266.1,268.4,263.5,267.6z"/>
					<path class="st22" d="M264.9,277.7c-1.1-2.9,0.5-5.4,2-6.9c-1.2-1.8-3.2-1.6-3.2-1.6s-4.6-0.4-3.9,6.1c0,0-7.4,11.7,3.9,12.2
						c5.9-0.3,6.7-3.5,6.2-6.6C268,280.8,265.8,280.1,264.9,277.7z"/>
				</g>
			</g>
		</g>
	</g>
</g>
</svg>
