<?xml version="1.0" encoding="utf-8"?>
<!-- Generator: Adobe Illustrator 21.0.0, SVG Export Plug-In . SVG Version: 6.00 Build 0)  -->
<svg version="1.1" xmlns="http://www.w3.org/2000/svg" xmlns:xlink="http://www.w3.org/1999/xlink" x="0px" y="0px"
	 viewBox="0 0 400 400" style="enable-background:new 0 0 400 400;" xml:space="preserve">
<style type="text/css">
	.st0{display:none;}
	.st1{display:inline;}
	.st2{clip-path:url(#SVGID_2_);}
	.st3{fill:url(#SVGID_3_);}
	.st4{fill:url(#SVGID_4_);}
	.st5{fill:url(#SVGID_5_);}
	.st6{fill:url(#SVGID_6_);}
	.st7{fill:#FFFFFF;stroke:url(#SVGID_7_);stroke-width:4;stroke-miterlimit:10;}
	.st8{fill:#FFFFFF;stroke:url(#SVGID_8_);stroke-width:4;stroke-miterlimit:10;}
	.st9{fill:none;}
	.st10{fill:url(#SVGID_9_);}
	.st11{fill:url(#SVGID_10_);}
	.st12{fill:url(#SVGID_11_);}
	.st13{fill:url(#SVGID_12_);}
	.st14{fill:#FFFFFF;}
	.st15{fill:url(#SVGID_13_);}
	.st16{fill:url(#SVGID_14_);}
	.st17{fill:#FFAAA6;}
	.st18{fill:#BF807D;}
	.st19{fill:#FFF5F4;}
	.st20{fill:#E0D7D6;}
	.st21{fill:#FEE4A6;stroke:#39393D;stroke-miterlimit:10;}
	.st22{fill:none;stroke:#39393D;stroke-miterlimit:10;}
	.st23{font-family:'OTELANDChoiceB-KSCpc-EUC-H';}
	.st24{font-size:37.0601px;}
</style>
<g id="레이어_1" class="st0">
	<g id="레이어_1_2_">
		<g id="레이어_1_1_" class="st1">
			<g>
				<g>
					<g>
						<g>
							<defs>
								<rect id="SVGID_1_" x="49.2" y="82.9" width="1430" height="300"/>
							</defs>
							<clipPath id="SVGID_2_">
								<use xlink:href="#SVGID_1_"  style="overflow:visible;"/>
							</clipPath>
							<g class="st2">
								
									<linearGradient id="SVGID_3_" gradientUnits="userSpaceOnUse" x1="1497.7996" y1="-5979.1157" x2="12.0996" y2="-5979.1157" gradientTransform="matrix(1 0 0 -1 0 -5746.1318)">
									<stop  offset="0" style="stop-color:#FEE4A6"/>
									<stop  offset="1.908112e-02" style="stop-color:#FEE2A6"/>
									<stop  offset="0.4204" style="stop-color:#FFC4A6"/>
									<stop  offset="0.7615" style="stop-color:#FFB1A6"/>
									<stop  offset="1" style="stop-color:#FFAAA6"/>
								</linearGradient>
								<rect x="12.1" y="71.6" class="st3" width="1485.7" height="322.7"/>
								<rect x="-196" y="82.9" class="st9" width="1921.5" height="300"/>
							</g>
						</g>
					</g>
				</g>
			</g>
		</g>
	</g>
</g>
<g id="레이어_2_2_">
	<g>
		<path class="st17" d="M223.9,87.1c-1-4.1-4.6-6.9-8.8-6.9h-21.9c-4.2,0-7.8,2.9-8.8,6.9l-66.7,276.4h172.9L223.9,87.1z"/>
		<path class="st18" d="M290.7,363.5c-1-3.9-66-273.4-66.7-276.4c-1-4.1-4.6-6.9-8.8-6.9h-21.9c-4.2,0-7.8,2.9-8.8,6.9l-2.5,10.6
			l50.6,209.7c2.7,11.4-5.9,22.3-17.5,22.3h-89.1l-8.2,33.8H290.7z"/>
		<path class="st17" d="M294.5,379.3H113.9c-8.7,0-15.8-7.1-15.8-15.8s7.1-15.8,15.8-15.8h180.5c8.7,0,15.8,7.1,15.8,15.8
			S303.2,379.3,294.5,379.3z"/>
		<path class="st18" d="M294.1,347.7h-1.9c0,7.5-6.1,13.5-13.5,13.5H98.3c-0.1,0.7-0.2,1.5-0.2,2.3c0,8.7,7.1,15.8,15.8,15.8h180.5
			c8.9,0,16-7.3,15.8-16.2C310,354.4,302.7,347.7,294.1,347.7z"/>
		<path class="st19" d="M145.8,247.5l-8.7,36.1h89.8l0.5-36.1H145.8z"/>
		<path class="st20" d="M262.6,247.5h-44.5l8.7,36.1h44.5L262.6,247.5z"/>
		<path class="st19" d="M163.2,175.3l-8.7,36.1h54.9v-36.1H163.2z"/>
		<path class="st20" d="M245.2,175.3h-44.5l8.7,36.1h44.5L245.2,175.3z"/>
	</g>
	<text transform="matrix(1 0 0 1 65.0562 50.4675)" class="st22 st23 st24">뚝딱뚝딱 공사중 ;)</text>
</g>
</svg>
