<?xml version="1.0" encoding="utf-8"?>
<!-- Generator: Adobe Illustrator 21.0.0, SVG Export Plug-In . SVG Version: 6.00 Build 0)  -->
<svg version="1.1" xmlns="http://www.w3.org/2000/svg" xmlns:xlink="http://www.w3.org/1999/xlink" x="0px" y="0px"
	 viewBox="0 0 1425 2345" style="enable-background:new 0 0 1425 2345;" xml:space="preserve">
<style type="text/css">
	.st0{display:none;}
	.st1{display:inline;fill:#FEE4A6;stroke:#39393D;stroke-miterlimit:10;}
	.st2{fill:#F9C4AA;stroke:#39393D;stroke-miterlimit:10;}
	.st3{display:inline;}
	.st4{fill:#FEE4A6;stroke:#39393D;stroke-miterlimit:10;}
</style>
<g id="레이어_1" class="st0">
	<circle class="st1" cx="1182.5" cy="974.6" r="10.5"/>
	<circle class="st1" cx="315.2" cy="1259" r="7.8"/>
	<circle class="st1" cx="1333.2" cy="1395" r="7.8"/>
	<circle class="st1" cx="135.6" cy="974.6" r="7.8"/>
	<circle class="st1" cx="1045" cy="1643.2" r="7.8"/>
	<circle class="st1" cx="802.4" cy="1142.9" r="7.8"/>
	<circle class="st1" cx="670.2" cy="1747.1" r="7.8"/>
	<circle class="st1" cx="930.1" cy="2261" r="7.8"/>
	<circle class="st1" cx="1247" cy="1800.6" r="7.8"/>
	<circle class="st1" cx="213.2" cy="1785" r="7.8"/>
	<circle class="st1" cx="1357" cy="795.2" r="7.8"/>
	<circle class="st1" cx="374.5" cy="48" r="10.5"/>
	<circle class="st1" cx="930.1" cy="31.1" r="7.8"/>
	<circle class="st1" cx="1372.6" cy="241.3" r="7.8"/>
	<circle class="st1" cx="151.2" cy="420.7" r="7.8"/>
	<circle class="st1" cx="1045" cy="616" r="7.8"/>
	<circle class="st1" cx="712.5" cy="698.8" r="7.8"/>
</g>
<g id="레이어_2">
	<circle class="st2" cx="364" cy="553" r="10.5"/>
	<circle class="st2" cx="464.4" cy="1480.4" r="10.5"/>
	<circle class="st2" cx="261" cy="2230.5" r="10.5"/>
	<circle class="st2" cx="802.4" cy="209.3" r="7.8"/>
	<circle class="st2" cx="1327.7" cy="497.9" r="7.8"/>
	<circle class="st2" cx="1140.8" cy="2088.8" r="7.8"/>
	<circle class="st2" cx="205.4" cy="714.4" r="7.8"/>
	<circle class="st2" cx="794.6" cy="1361.9" r="7.8"/>
	<circle class="st2" cx="1114.7" cy="787.4" r="7.8"/>
	<circle class="st2" cx="86.2" cy="84" r="7.8"/>
	<circle class="st2" cx="856" cy="464.2" r="7.8"/>
	<circle class="st2" cx="810.2" cy="2105.2" r="7.8"/>
	<circle class="st2" cx="569.6" cy="941.8" r="7.8"/>
	<circle class="st2" cx="1200.7" cy="48" r="10.5"/>
</g>
<g id="레이어_3" class="st0">
	<g class="st3">
		<path class="st4" d="M827,87.5c4.5-0.7,5.2,5.9,3,8.5c-2.4,2.9-6.6,3.9-9.7,5.9c-6.4,4.2-8.2,10.5-7.7,17.9
			c0.1,2.2,3.6,1.9,3.4-0.3c-0.3-5.3,0.3-10.1,4.6-13.6c3.5-2.8,8.2-3.8,11.4-7.1c4.6-4.6,2.6-16.1-5.3-14.7
			C824.6,84.5,824.8,87.9,827,87.5L827,87.5z"/>
	</g>
	<g class="st3">
		<path class="st4" d="M1312.5,2162.6c4.5-0.7,5.2,5.9,3,8.5c-2.4,2.9-6.6,3.9-9.7,5.9c-6.4,4.2-8.2,10.5-7.7,17.9
			c0.1,2.2,3.6,1.9,3.4-0.3c-0.3-5.3,0.3-10.1,4.6-13.6c3.5-2.8,8.2-3.8,11.4-7.1c4.6-4.6,2.6-16.1-5.3-14.7
			C1310.1,2159.6,1310.3,2163,1312.5,2162.6L1312.5,2162.6z"/>
	</g>
	<g class="st3">
		<path class="st4" d="M357,870.5c4.5-0.7,5.2,5.9,3,8.5c-2.4,2.9-6.6,3.9-9.7,5.9c-6.4,4.2-8.2,10.5-7.7,17.9
			c0.1,2.2,3.6,1.9,3.4-0.3c-0.3-5.3,0.3-10.1,4.6-13.6c3.5-2.8,8.2-3.8,11.4-7.1c4.6-4.6,2.6-16.1-5.3-14.7
			C354.6,867.5,354.8,870.9,357,870.5L357,870.5z"/>
	</g>
	<g class="st3">
		<path class="st4" d="M1366.2,389.6c0.5,4.5-6.2,4.9-8.7,2.5c-2.8-2.6-3.4-6.9-5.3-10.1c-3.8-6.7-10-8.9-17.4-8.8
			c-2.2,0-2.2,3.4,0,3.4c5.3,0,10.1,0.9,13.3,5.5c2.6,3.7,3.3,8.4,6.3,11.8c4.3,4.9,15.9,3.6,15-4.4
			C1369.4,387.4,1366,387.4,1366.2,389.6L1366.2,389.6z"/>
	</g>
	<g class="st3">
		<path class="st4" d="M202.2,1447.4c0.3,2.2,3.6,1.5,3.2-0.6c-0.7-8-12.4-6.9-15.6-1.3c-2.2,3.9-2,8.7-3.8,12.8
			c-2.2,5.2-6.7,7-11.9,8.1c-2.2,0.4-1.5,3.8,0.7,3.3c7.3-1.4,12.9-4.8,15.2-12.2c1.2-3.5,0.9-7.9,3.1-11
			C195.1,1443.9,201.8,1442.9,202.2,1447.4L202.2,1447.4z"/>
	</g>
	<g class="st3">
		<path class="st4" d="M14.9,2044.5c0.5,4.5-6.2,4.9-8.7,2.5c-2.8-2.6-3.4-6.9-5.3-10.1c-3.8-6.7-10-8.9-17.4-8.8
			c-2.2,0-2.2,3.4,0,3.4c5.3,0,10.1,0.9,13.3,5.5c2.6,3.7,3.3,8.4,6.3,11.8c4.3,4.9,15.9,3.6,15-4.4
			C18.1,2042.3,14.7,2042.3,14.9,2044.5L14.9,2044.5z"/>
	</g>
	<g class="st3">
		<path class="st2" d="M106.8,475.5c8.6,6,7.6,22-0.4,28c-10,7.5-26.7,6-26.4,22.2c0.1,3.2-4.9,3.2-5,0
			c-0.2-10.3,5.1-16.2,14.2-19.9c5.1-2.1,12.1-3.4,15.9-7.7c3.5-4,3.9-14.9-0.9-18.2C101.6,478,104.1,473.7,106.8,475.5L106.8,475.5
			z"/>
	</g>
	<g class="st3">
		<path class="st2" d="M515,2111.9c-6.5,8.2-22.4,6.2-27.9-2.2c-6.9-10.5-4.3-27-20.5-27.7c-3.2-0.1-2.9-5.1,0.3-5
			c10.3,0.4,15.8,6.1,19,15.4c1.8,5.2,2.6,12.3,6.7,16.4c3.8,3.7,14.6,4.8,18.2,0.2C512.9,2106.6,517,2109.3,515,2111.9L515,2111.9z
			"/>
	</g>
	<g class="st3">
		<path class="st2" d="M1115.8,1200.9c9.1-5.2,23.1,2.4,25.2,12.2c2.6,12.2-5.9,26.7,8.9,33.3c2.9,1.3,0.8,5.8-2.1,4.5
			c-9.4-4.2-12.5-11.5-12-21.3c0.3-5.5,2.1-12.4-0.2-17.7c-2.1-4.9-11.8-9.8-16.9-6.9C1115.9,1206.7,1113,1202.6,1115.8,1200.9
			L1115.8,1200.9z"/>
	</g>
	<g class="st3">
		<path class="st4" d="M619.8,479.1c-0.1,5.6-1.1,11.8,1.6,17c3,5.7,9.5,8,15,10.5c7.6,3.5,22.1,6.7,20.9,17.5c-0.4,3.2,4.6,3.2,5,0
			c1.2-10-7.8-15.2-15.8-18.6c-4.8-2.1-9.7-4-14.3-6.4c-4.2-2.2-7-4.8-7.6-9.7c-0.4-3.4,0.1-6.9,0.2-10.2
			C624.9,475.9,619.9,475.9,619.8,479.1L619.8,479.1z"/>
	</g>
</g>
</svg>
