<?xml version="1.0" encoding="utf-8"?>
<!-- Generator: Adobe Illustrator 21.0.0, SVG Export Plug-In . SVG Version: 6.00 Build 0)  -->
<svg version="1.1" id="레이어_1" xmlns="http://www.w3.org/2000/svg" xmlns:xlink="http://www.w3.org/1999/xlink" x="0px"
	 y="0px" viewBox="0 0 97.7 108.3" style="enable-background:new 0 0 97.7 108.3;" xml:space="preserve">
<style type="text/css">
	.st0{fill:none;stroke:#39393D;stroke-width:2;stroke-linecap:round;stroke-linejoin:round;stroke-miterlimit:10;}
	.st1{fill:#39393D;}
	.st2{fill:#FEE4A6;stroke:#39393D;stroke-miterlimit:10;}
	.st3{font-family:'CookieRunOTF-Regular-KSCpc-EUC-H';}
	.st4{font-size:44.5394px;}
	.st5{fill:#F9C4AA;stroke:#39393D;stroke-miterlimit:10;}
	.st6{font-size:17.0849px;}
	.st7{font-size:21.1107px;}
	.st8{font-size:14.6078px;}
</style>
<ellipse class="st0" cx="23.9" cy="82.3" rx="20.9" ry="23.1"/>
<ellipse class="st1" cx="33.4" cy="84" rx="11.4" ry="14.2"/>
<line class="st0" x1="16.5" y1="60.8" x2="12.8" y2="52.7"/>
<line class="st0" x1="26.1" y1="59.3" x2="26.1" y2="49.7"/>
<line class="st0" x1="33.4" y1="61.8" x2="39.2" y2="54.5"/>
<ellipse class="st0" cx="74.4" cy="82.3" rx="20.9" ry="23.1"/>
<ellipse class="st1" cx="83.9" cy="84" rx="11.4" ry="14.2"/>
<line class="st0" x1="67" y1="60.8" x2="63.4" y2="52.7"/>
<line class="st0" x1="76.6" y1="59.3" x2="76.6" y2="49.7"/>
<line class="st0" x1="83.9" y1="61.8" x2="89.7" y2="54.5"/>
<text transform="matrix(0.9597 -0.2809 0.2809 0.9597 31.8807 38.6959)" class="st2 st3 st4">?</text>
<text transform="matrix(-0.8576 0.2768 0.3072 0.9517 14.8777 37.5538)" class="st5 st3 st6">?</text>
<text transform="matrix(0.7071 0.7071 -0.7071 0.7071 78.3479 36.4253)" class="st2 st3 st7">?</text>
<text transform="matrix(0.9818 0.1901 -0.1901 0.9818 70.0778 20.1875)" class="st5 st3 st8">?</text>
</svg>
