<?xml version="1.0" encoding="utf-8"?>
<!-- Generator: Adobe Illustrator 21.0.0, SVG Export Plug-In . SVG Version: 6.00 Build 0)  -->
<svg version="1.1" id="레이어_1" xmlns="http://www.w3.org/2000/svg" xmlns:xlink="http://www.w3.org/1999/xlink" x="0px"
	 y="0px" viewBox="0 0 189 236.4" style="enable-background:new 0 0 189 236.4;" xml:space="preserve">
<style type="text/css">
	.st0{fill:#FFD5CD;}
	.st1{fill:#FFB2A5;}
	.st2{fill:#FF9292;}
	.st3{fill:#F27272;}
	.st4{fill:#B2B17E;}
	.st5{clip-path:url(#SVGID_2_);fill:#FFB2A5;}
	.st6{fill:#F69994;}
</style>
<g>
	<path class="st0" d="M184.3,140.5c-0.6-2.5-5-5.7-9-8.3c-3.8-41.1-37.6-73.5-79.3-75.2c-1.1,0-2.2-0.1-3.3-0.1
		c-27.2,0-51.4,13.1-66.5,33.4c-3.5,0.4-6.9,0.9-9.1,1.5c-5.8,1.6-3.1,3.2-3.5,6.5c0,0-0.2,1.7-1.3,3.1c-2.4,3.4-6.8,1.9-8,4
		c-1.2,2.2,2.4,5.8,6.8,12.3c0.4,0.6,0.8,1.2,1.2,1.8c-1.6,6.5-2.5,13.3-2.5,20.3c0,33.7,20,62.6,48.8,75.6l-0.1,0
		c0.5,2.4,1.2,3.9,2,4.5c2.5,2.2,5.5,1,9.6,2.8c2.1,0.9,3.6,2.3,4.5,3.1c1.7,2.8,1.3,1.4,2.9,4.1c0.8,1.3,2.2,2.2,3.8,2.2
		c1.9,0.1,3.5,0,4.7,0c2.1-0.1,2.6-0.2,3-0.3c3.1-1,5.4-3.9,5.4-3.9s8.4,0.3,10.2-0.5c3.3-1.5,12.8-7.6,15.6-9.3
		c22-7.7,39.7-24.4,48.8-45.7v0.5c0,0,11.7-14.6,11.3-19.6C180,148.5,185.3,144.8,184.3,140.5z"/>
	<path class="st0" d="M78.6,194.9c2.2-0.4,11.3-1.8,17.2-2.6c3.4-0.5,6.5-2,9-4.3l6.5-5.9c2-1.8,4.3-3.2,6.9-4
		c4.9-1.4,7.8-4.2,9.5-7c2.2-3.5,2.9-7.8,2.1-11.9c-1-5.4-2.8-16.7-0.6-20.7c3-5.3,0.5-19.7-1.3-23.7c-7.7-16.4-20.3-22.4-25.5-27.2
		c-0.9-0.9-1.7-1.8-2.4-2.8c-5-7.2-6.4-14-6.3-19.7c0.1-2.9,0.9-5.6,2.2-8c-1.1,0-2.2-0.1-3.3-0.1c-27.2,0-51.4,13.1-66.5,33.4
		c-3.5,0.4-6.9,0.9-9.1,1.5c-5.8,1.6-3.1,3.2-3.5,6.5c0,0-0.2,1.7-1.3,3.1c-2.4,3.4-6.8,1.9-8,4c-1.2,2.2,2.4,5.8,6.8,12.3
		c0.4,0.6,0.8,1.2,1.2,1.8c-1.6,6.5-2.5,13.3-2.5,20.3c0,33.7,20,62.6,48.8,75.6c0.4,0.2,0.7,0.3,1.1,0.5
		C63.2,205.8,76.2,195.3,78.6,194.9"/>
	<path class="st0" d="M184.3,140.5c-0.6-2.5-5-5.7-9-8.3c-3.8-41.1-37.6-73.5-79.3-75.2c-1.4,2.4-2.2,5.1-2.2,8
		c-0.1,5.7,1.4,12.5,6.3,19.7c0.7,1,1.5,2,2.4,2.8c5.1,4.8,17.8,10.8,25.5,27.2c1.9,4,4.3,18.3,1.3,23.7c-2.3,4-0.5,15.3,0.6,20.7
		c0.8,4.1,0.1,8.3-2.1,11.9c-1.8,2.8-4.7,5.6-9.5,7c-2.6,0.8-4.9,2.2-6.9,4l-6.5,5.9c-2.5,2.3-5.7,3.8-9,4.3
		c-5.9,0.8-15,2.2-17.2,2.6c-2.5,0.5-15.4,10.9-19.1,21.3c-0.4-0.2-0.7-0.3-1.1-0.5l-0.1,0c0.5,2.4,1.2,3.9,2,4.5
		c2.5,2.2,5.5,1,9.6,2.8c2.1,0.9,3.6,2.3,4.5,3.1c1.7,2.8,1.3,1.4,2.9,4.1c0.8,1.3,2.2,2.2,3.8,2.2c1.9,0.1,3.5,0,4.7,0
		c2.1-0.1,2.6-0.2,3-0.3c3.1-1,5.4-3.9,5.4-3.9s8.4,0.3,10.2-0.5c3.3-1.5,12.8-7.6,15.6-9.3c22-7.7,39.7-24.4,48.8-45.7v0.5
		c0,0,11.7-14.6,11.3-19.6C180,148.5,185.3,144.8,184.3,140.5"/>
	<path class="st1" d="M63.7,121.5c-9.4,0-9.3,15.9-9.1,19.8c0,0.5,0.4,0.9,0.9,0.9c1.8,0,3.6-0.8,4.8-2.2l1-1.2
		c1.3-1.6,3.2-2.8,5.3-3c6.7-0.9,7.3-13.9-2.5-14.2C63.9,121.5,63.8,121.5,63.7,121.5"/>
	<path class="st1" d="M35.1,176.2c-2.6,0-4.5,2.5-3.7,5c1.6,5.2,5,13.7,10.2,13.7c1,0,2.1-0.3,3.3-1.1c9.5-6.3-1.8-14-5.7-16.5
		C37.8,176.4,36.4,176.2,35.1,176.2C35.2,176.2,35.1,176.2,35.1,176.2"/>
	<path class="st2" d="M49.3,15.8c0,0-0.3-1.9,1.3-2.8c2.3-1.3,3.8,0.5,3.8,0.5l-1.2,3.9L49.3,15.8z"/>
	<path class="st2" d="M52.1,17.8c-0.2-1-0.1-1.7,0.1-2.1c0.4-0.9,1.2-1.2,1.4-2.1c0.1-0.5-0.5-0.9-0.3-1.2c0.4-0.5,1.6,0.2,2.5,0.7
		c1.1,0.6,1.8,1.4,2.1,1.9l-0.7,3.6L52.1,17.8z"/>
	<path class="st3" d="M52.2,15.7c0.4-0.9,1.2-1.2,1.4-2.1c0.1-0.5-0.5-0.9-0.3-1.2c0.2-0.2,0.6-0.2,1.1,0c-0.7-0.3-1.3-0.5-1.6-0.2
		c-0.2,0.3,0.4,0.7,0.3,1.2c-0.2,0.9-1,1.2-1.4,2.1c-0.2,0.4-0.4,1.1-0.1,2.1l0.4,0.1C51.9,16.7,52,16.1,52.2,15.7z"/>
	<path class="st2" d="M52.1,20.2l-3.4-0.5c-0.3-0.3-0.6-0.5-0.7-0.8c-0.8-1.4-0.3-3.1,0.2-4c0.1-0.3,0.5-0.4,0.8-0.2
		c0.3,0.2,0.6,0.4,1.1,0.6c1.5,0.6,2.5,0.1,3.6,0.5c0.7,0.3,1.7,1,2.4,3.1L52.1,20.2z"/>
	<path class="st3" d="M48.2,14.9c0.1-0.3,0.5-0.4,0.8-0.2c0.3,0.2,0.6,0.4,1.1,0.6c1.5,0.6,2.5,0.1,3.6,0.5c0.7,0.2,1.5,0.9,2.2,2.7
		l0.2-0.1c-0.7-2.1-1.7-2.8-2.4-3.1c-1.1-0.4-2.1,0.1-3.6-0.5c-0.4-0.2-0.8-0.4-1.1-0.6c-0.3-0.2-0.7-0.1-0.8,0.2
		c-0.3,0.6-0.6,1.6-0.6,2.6C47.7,16.2,47.9,15.4,48.2,14.9z"/>
	<path class="st3" d="M57.8,13.2c-0.2-0.2-1.4-0.8-1.6-0.9c-0.6-0.3-1-0.3-1.3,0c-0.4,0.4,0.5,1.5,0.4,3.1c-0.1,0.9-0.5,1.6-0.8,2.1
		c-0.7,1.1-1.6,1.8-2.1,2.2c1.8,2.2,3.6,4.4,5.4,6.6l0.1-0.1c-1.7-2-3.3-4.1-5-6.1c0.5-0.4,1.4-1.1,2.1-2.2c0.3-0.6,0.7-1.2,0.8-2.1
		c0.2-1.7-0.8-2.7-0.4-3.1"/>
	<path class="st2" d="M62.5,18c0.4,1.1,0.6,2.1,0.7,2.5l-4.9,6.2c-1.8-2.2-3.6-4.4-5.4-6.6c0.5-0.4,1.4-1.1,2.1-2.2
		c0.3-0.6,0.7-1.2,0.8-2.1c0.2-1.7-0.8-2.7-0.4-3.1c0.1-0.1,0.2-0.1,0.3-0.1c1.7,0.7,2.7,1.7,3.3,2.3c0.4,0.4,2.6,2.9,1.9,4.5
		c-0.1,0.3-0.3,0.5-0.5,0.6c0.2-0.1,0.6-0.3,1-0.6c0.5-0.3,0.9-0.8,0.8-1.3L62.5,18z"/>
	<path class="st3" d="M58.1,13.6c0.3,0.2-1.4-0.8-1.6-0.9c-0.6-0.2-1-0.3-1.3,0c-0.4,0.4,0.5,1.5,0.4,3.1c-0.1,0.9-0.5,1.6-0.8,2.1
		c-0.7,1.1-1.6,1.8-2.1,2.2c1.8,2.2,3.6,4.4,5.4,6.6l0.1-0.1c-1.7-2-3.3-4.1-5-6.1c0.5-0.4,1.4-1.1,2.1-2.2c0.3-0.6,0.7-1.2,0.8-2.1
		c0.2-1.7-0.8-2.7-0.4-3.1C55.7,13,56.2,12.4,58.1,13.6z"/>
	<path class="st2" d="M48.6,24.1c-0.5-0.3-0.8-0.7-1.1-1c-1.3-1.7-1.6-4-0.9-5.7c0.2-0.4,0.4-0.9,0.8-1c0.7-0.2,1.2,1,2.3,1.7
		c1.6,1,2.5-0.1,4.5,0.7c0.5,0.2,2.7,1.1,3.6,3.5c0.8,2.2-0.2,4.2-0.4,4.6L48.6,24.1z"/>
	<path class="st3" d="M46.6,17.4c0.2-0.4,0.4-0.9,0.8-1c0.7-0.2,1.2,1,2.3,1.7c1.6,1,2.5-0.1,4.5,0.7c0.5,0.2,2.7,1.1,3.6,3.5
		c0.2,0.5,0.3,1,0.3,1.5c0-0.6,0-1.3-0.3-2c-0.8-2.4-3.1-3.3-3.6-3.5c-2-0.8-2.9,0.3-4.5-0.7c-1.1-0.7-1.6-1.8-2.3-1.7
		c-0.4,0.1-0.6,0.5-0.8,1c-0.3,0.7-0.4,1.5-0.3,2.3C46.3,18.5,46.4,18,46.6,17.4z"/>
	<path class="st2" d="M45.7,21.8c0-0.7,0.1-1,0.3-1.1c0.8-0.7,2.5,1.1,5.9,2c2.3,0.7,2.8,0.2,4.4,0.9c2,0.9,3.2,2.5,3.9,3.8
		c-1,1.7-2.1,3.5-3.1,5.2l-2.4,0.4c-1.8,0.1-3-0.4-3.8-0.8C47.5,30.5,45.6,26.5,45.7,21.8z"/>
	<path class="st3" d="M46,20.6c0.8-0.7,2.5,1.1,5.9,2c2.3,0.7,2.8,0.2,4.4,0.9c1.8,0.8,3,2.2,3.7,3.4c0.1-0.1,0.2-0.3,0.2-0.4
		c-0.7-1.2-1.9-2.9-3.9-3.8c-1.6-0.7-2-0.2-4.4-0.9c-3.4-0.9-5.1-2.7-5.9-2c-0.2,0.1-0.4,0.4-0.3,1.1c0,0.2,0,0.3,0,0.5
		C45.7,21,45.8,20.8,46,20.6z"/>
	<path class="st2" d="M55.3,33.6c-1.1-0.9-1.3-2-1.4-2.8c-0.5-3.9,2.7-7.1,3.1-7.5c1-1,1.2-0.8,2.9-2.3c1.2-1,2.1-2,2.8-2.8
		c0.3-0.3,0.8-0.2,1,0.2c0.2,0.6,0.4,1.3,0.6,2.2c0.3,1.7,0.4,3.6,0.1,5.7c-0.4,2.7-2.1,4.8-4.3,5.1c-0.3,0.5-0.6,1-0.8,1.4
		C57.7,33.8,56.1,34.3,55.3,33.6z"/>
	<path class="st4" d="M61.7,46.1c-2.7,2.6-3.3,5.7-3.6,6.1h-0.5c0.4-0.4,1-3.4,3.6-6.1H61.7z"/>
	<path class="st4" d="M61.2,46.4c0,0-1.7-6.2,6.6-10.2C67.8,36.3,67.6,47,61.2,46.4z"/>
	<path class="st4" d="M58.3,60.5c0,0-3.9-4.3-7.1-6.1v0.5c3.1,1.8,7.1,6.1,7.1,6.1V60.5z"/>
	<path class="st4" d="M61.2,66c0,0-3.5-7.3-2.3-16.7c1.2-9.4,1.2-14.3-0.3-16.5l-1.8,0.3c1.4,2.3,1.4,6.8,0.2,16.2
		C55.8,58.8,59.3,66,59.3,66H61.2z"/>
	<path class="st4" d="M51.6,54.9c0,0,0.4-5.5-6.2-5.1C45.4,49.8,45,55,51.6,54.9z"/>
	<path class="st4" d="M57,34.4l2.1-0.6c0.5-0.1,0.8-0.5,1-0.9l0.5-1.8l-6.1,1.6l1.1,1.2C56,34.4,56.5,34.6,57,34.4z"/>
	<path class="st3" d="M53.9,30.9c-0.5-3.9,2.8-6.4,3.2-6.8c1-1,1.1-1,2.9-2.3c1.6-1.1,2-2.7,2.7-3.5c0.2-0.3,0.7-0.1,0.9,0.1
		c0-0.1,0-0.2-0.1-0.3l0,0c-0.1-0.1-0.1-0.2-0.1-0.2c0-0.1-0.2-0.4-0.6-0.6c-0.2-0.2-0.8-0.4-1-0.3c-0.1,0.1,0.1,0.3,0.1,0.6
		c0.1,0.8-0.7,1.6-2.2,2.9c-0.2,0.2-0.4,0.4-0.5,0.4c-0.2,0.2-0.4,0.3-0.7,0.5c-0.7,0.5-1,0.6-1.7,1.3c-0.4,0.4-3.6,3.6-3.1,7.5
		c0.1,0.5,0.2,1.2,0.5,1.9C54,31.8,54,31.3,53.9,30.9z"/>
	<path class="st3" d="M55.7,12.5c0,0,5.9,3.9,4.7,7.4c0,0,2-0.9,1.8-1.9C62,17,57.6,12.1,55.7,12.5z"/>
	<path class="st3" d="M55.7,13c0,0,0-0.6,1.7,0.8l0.1-0.5l-1.6-0.7l-0.3,0.2L55.7,13z"/>
	<path class="st1" d="M63.4,76.2c-1.2,0-13,3.7-23.5,13.5c-14.8,13.8-17.3,30.8-17.3,30.8c2.5-7.7,7-17.9,15.8-27.1
		C50,81.2,63.7,76.5,63.4,76.2C63.5,76.2,63.5,76.2,63.4,76.2"/>
	<path class="st1" d="M31.3,93.9c-0.1,0-7.8,8.6-11.7,21.5c-1.8,6.1-2,10.3-2,10.3c0.6-2.3,1.4-5.5,2.6-9.3c1-3.1,2.5-7.5,5.2-12.8
		C28.5,97.4,31.3,93.9,31.3,93.9C31.3,93.9,31.3,93.9,31.3,93.9"/>
	<g>
		<defs>
			<path id="SVGID_1_" d="M124.2,57.7c0,0-10.7,18.7,12,46.5c0,0,16.4,17.3,3.2,40.2c0,0-6.3,10.3-4.9,22.8
				c1.4,12.5-17.7,13.1-17.7,13.1s-15.8,3.5-18.4,7.8c-1.3,2.1-6.4,0.8-11.8-0.4c-5.6-1.3-11.6-2.6-13.9-0.1
				c-4.5,4.8-26.2,12.4-24.1,22.8c2.1,10.4,8.2,64.1,8.2,64.1L187.5,211L231,82.4L124.2,57.7"/>
		</defs>
		<clipPath id="SVGID_2_">
			<use xlink:href="#SVGID_1_"  style="overflow:visible;"/>
		</clipPath>
		<path class="st5" d="M145.1,187.5c0,0,19.5-14.8,21-55.7C166.1,131.8,172.6,173,145.1,187.5 M122.5,62.5
			c-1.7,7.3-2.1,22.2,13.7,41.6c0,0,16.4,17.3,3.2,40.2c0,0-6.3,10.3-4.9,22.8c1.4,12.5-17.7,13.1-17.7,13.1s-2,0.4-4.7,1.2
			c-0.3,0.2-0.5,0.4-0.7,0.6l-6.5,5.9c-2.5,2.3-5.7,3.8-9,4.3c-5.9,0.8-15,2.2-17.2,2.6c-2.5,0.5-16.6,10.4-20.2,20.8
			c-0.4-0.2,0.4,0.2,0.1,0l0,0l-0.1,0c0.5,2.4,1.2,3.9,2,4.5c2.5,2.2,5.5,1,9.6,2.8c2.1,0.9,3.6,2.3,4.5,3.1
			c1.7,2.8,1.3,1.4,2.9,4.1c0.8,1.3,2.2,2.2,3.8,2.2c0.7,0,1.4,0,2,0c1,0,1.9,0,2.7-0.1c2.1-0.1,2.6-0.2,3-0.3
			c3.1-1,5.4-3.9,5.4-3.9s1.3,0,3,0c2.6,0,6.1-0.1,7.2-0.6c3.3-1.5,12.8-7.6,15.6-9.3c22-7.7,39.7-24.4,48.8-45.7v0.5
			c0,0,11.3-14.2,11.3-19.4c0-0.1,0-0.1,0-0.2c0-0.2,0-0.3,0-0.5c0-4.3,4.1-7.7,4.1-11.4c0-0.4,0-0.7-0.1-1.1c-0.6-2.5-5-5.7-9-8.3
			C172.3,100.3,151.3,73.6,122.5,62.5"/>
	</g>
	<path class="st6" d="M166.1,131.8c-1.5,40.8-21,55.7-21,55.7C172.6,173,166.1,131.8,166.1,131.8"/>
</g>
</svg>
