<?xml version="1.0" encoding="utf-8"?>
<!-- Generator: Adobe Illustrator 21.0.0, SVG Export Plug-In . SVG Version: 6.00 Build 0)  -->
<svg version="1.1" xmlns="http://www.w3.org/2000/svg" xmlns:xlink="http://www.w3.org/1999/xlink" x="0px" y="0px"
	 viewBox="0 0 198 225" style="enable-background:new 0 0 198 225;" xml:space="preserve">
<style type="text/css">
	.st0{fill:#FFD983;}
	.st1{display:none;}
	.st2{display:inline;}
	.st3{fill:#FFD5CD;}
	.st4{opacity:0.54;fill:#EFBBCF;}
	.st5{display:inline;opacity:0.54;fill:#EFBBCF;}
	.st6{display:inline;fill:#FF9292;}
	.st7{display:inline;fill:#F27272;}
	.st8{display:inline;fill:#B2B17E;}
</style>
<g id="레이어_4">
	<g>
		<circle class="st0" cx="103.8" cy="66.6" r="39.7"/>
		<path class="st0" d="M182,102.8l9-1.7l-9-1.7c-1.6-0.3-2.7-1.6-2.9-3.1L177,76.6l-2.1,19.6c-0.2,1.6-1.3,2.8-2.9,3.1l-9,1.7l9,1.7
			c1.6,0.3,2.7,1.6,2.9,3.1l2.1,19.6l2.1-19.6C179.3,104.3,180.5,103.1,182,102.8z"/>
		<path class="st0" d="M84.2,158.8l3-2.7l-3.8,1.4c-0.7,0.2-1.4,0-1.8-0.5l-5.4-7l3.7,8c0.3,0.6,0.1,1.4-0.4,1.9l-3,2.7l3.8-1.4
			c0.7-0.2,1.4,0,1.8,0.5l5.4,7l-3.7-8C83.5,160,83.6,159.3,84.2,158.8z"/>
		<ellipse transform="matrix(0.7071 -0.7071 0.7071 0.7071 -61.23 141.3167)" class="st0" cx="140" cy="144.6" rx="1.9" ry="1.9"/>
		<ellipse transform="matrix(0.7071 -0.7071 0.7071 0.7071 10.5464 48.7635)" class="st0" cx="64.1" cy="11.7" rx="2.6" ry="2.6"/>
		
			<ellipse transform="matrix(0.7071 -0.7071 0.7071 0.7071 -130.117 116.9961)" class="st0" cx="76.2" cy="215.6" rx="3.2" ry="3.2"/>
		<ellipse transform="matrix(0.7071 -0.7071 0.7071 0.7071 -75.5388 49.679)" class="st0" cx="22.2" cy="116" rx="4.9" ry="4.9"/>
	</g>
</g>
<g id="레이어_3" class="st1">
	<g class="st2">
		<path class="st3" d="M376.1,178.2c-0.6-2.5-5-5.7-9-8.3c-3.8-41.1-37.6-73.5-79.3-75.2c-1.4,2.4-2.2,5.1-2.2,8
			c-0.1,5.7,1.4,12.5,6.3,19.7c0.7,1,1.5,2,2.4,2.8c5.1,4.8,17.8,10.8,25.5,27.2c1.9,4,4.3,18.3,1.3,23.7c-2.2,4-0.5,15.3,0.6,20.7
			c0.8,4.1,0.1,8.3-2.1,11.9c-1.8,2.8-4.7,5.6-9.5,7c-2.6,0.8-4.9,2.2-6.9,4l-6.5,5.9c-2.5,2.3-5.7,3.8-9,4.3
			c-5.9,0.9-15,2.2-17.2,2.6c-2.5,0.5-15.4,10.9-19.1,21.3c-0.4-0.2-0.7-0.3-1.1-0.5l-0.1,0c0.5,2.4,1.2,3.9,2,4.5
			c2.5,2.2,5.5,1,9.6,2.8c2.2,0.9,3.6,2.3,4.5,3.2c1.7,2.8,1.3,1.4,2.9,4.1c0.8,1.3,2.2,2.2,3.8,2.2c1.9,0.1,3.5,0,4.7,0
			c2.1-0.1,2.6-0.2,3-0.3c3.1-1,5.4-3.9,5.4-3.9s8.4,0.3,10.2-0.5c3.3-1.5,12.8-7.6,15.6-9.3c22-7.7,39.7-24.4,48.8-45.7v0.5
			c0,0,11.7-14.6,11.3-19.6C371.8,186.2,377.1,182.6,376.1,178.2z"/>
		<path class="st4" d="M376.1,178.2c-0.6-2.5-5-5.7-9-8.3c-3.8-41.1-37.6-73.5-79.3-75.2c-1.4,2.4-2.2,5.1-2.2,8
			c-0.1,5.7,1.4,12.5,6.3,19.7c0.7,1,1.5,2,2.4,2.8c5.1,4.8,17.8,10.8,25.5,27.2c1.9,4,4.3,18.3,1.3,23.7c-2.2,4-0.5,15.3,0.6,20.7
			c0.8,4.1,0.1,8.3-2.1,11.9c-1.8,2.8-4.7,5.6-9.5,7c-2.6,0.8-4.9,2.2-6.9,4l-6.5,5.9c-2.5,2.3-5.7,3.8-9,4.3
			c-5.9,0.9-15,2.2-17.2,2.6c-2.5,0.5-15.4,10.9-19.1,21.3c-0.4-0.2-0.7-0.3-1.1-0.5l-0.1,0c0.5,2.4,1.2,3.9,2,4.5
			c2.5,2.2,5.5,1,9.6,2.8c2.2,0.9,3.6,2.3,4.5,3.2c1.7,2.8,1.3,1.4,2.9,4.1c0.8,1.3,2.2,2.2,3.8,2.2c1.9,0.1,3.5,0,4.7,0
			c2.1-0.1,2.6-0.2,3-0.3c3.1-1,5.4-3.9,5.4-3.9s8.4,0.3,10.2-0.5c3.3-1.5,12.8-7.6,15.6-9.3c22-7.7,39.7-24.4,48.8-45.7v0.5
			c0,0,11.7-14.6,11.3-19.6C371.8,186.2,377.1,182.6,376.1,178.2z"/>
		<path class="st3" d="M270.5,232.6c2.2-0.4,11.3-1.8,17.2-2.6c3.4-0.5,6.5-2,9-4.3l6.5-5.9c2-1.8,4.3-3.2,6.9-4
			c4.9-1.4,7.8-4.2,9.5-7c2.2-3.5,2.9-7.8,2.1-11.9c-1-5.4-2.8-16.7-0.6-20.7c3-5.3,0.5-19.7-1.3-23.7
			c-7.7-16.4-20.3-22.4-25.5-27.2c-0.9-0.9-1.7-1.8-2.4-2.8c-5-7.2-6.4-14-6.3-19.7c0.1-2.9,0.9-5.6,2.2-8c-1.1,0-2.2-0.1-3.3-0.1
			c-27.2,0-51.4,13.1-66.6,33.4c-3.5,0.4-6.9,0.9-9.1,1.5c-5.8,1.6-3.1,3.2-3.5,6.5c0,0-0.2,1.7-1.3,3.1c-2.4,3.4-6.8,1.9-8,4
			c-1.2,2.2,2.4,5.8,6.8,12.3c0.4,0.6,0.8,1.2,1.2,1.8c-1.6,6.5-2.5,13.3-2.5,20.3c0,33.7,20,62.6,48.8,75.6
			c0.4,0.2,0.7,0.3,1.1,0.5C255.1,243.5,268,233.1,270.5,232.6z"/>
	</g>
	<g class="st2">
		<path class="st3" d="M376.1,178.2c-0.6-2.5-5-5.7-9-8.3c-3.8-41.1-37.6-73.5-79.3-75.2c-1.4,2.4-2.2,5.1-2.2,8
			c-0.1,5.7,1.4,12.5,6.3,19.7c0.7,1,1.5,2,2.4,2.8c5.1,4.8,17.8,10.8,25.5,27.2c1.9,4,4.3,18.3,1.3,23.7c-2.2,4-0.5,15.3,0.6,20.7
			c0.8,4.1,0.1,8.3-2.1,11.9c-1.8,2.8-4.7,5.6-9.5,7c-2.6,0.8-4.9,2.2-6.9,4l-6.5,5.9c-2.5,2.3-5.7,3.8-9,4.3
			c-5.9,0.9-15,2.2-17.2,2.6c-2.5,0.5-15.4,10.9-19.1,21.3c-0.4-0.2-0.7-0.3-1.1-0.5l-0.1,0c0.5,2.4,1.2,3.9,2,4.5
			c2.5,2.2,5.5,1,9.6,2.8c2.2,0.9,3.6,2.3,4.5,3.2c1.7,2.8,1.3,1.4,2.9,4.1c0.8,1.3,2.2,2.2,3.8,2.2c1.9,0.1,3.5,0,4.7,0
			c2.1-0.1,2.6-0.2,3-0.3c3.1-1,5.4-3.9,5.4-3.9s8.4,0.3,10.2-0.5c3.3-1.5,12.8-7.6,15.6-9.3c22-7.7,39.7-24.4,48.8-45.7v0.5
			c0,0,11.7-14.6,11.3-19.6C371.8,186.2,377.1,182.6,376.1,178.2z"/>
		<path class="st4" d="M376.1,178.2c-0.6-2.5-5-5.7-9-8.3c-3.8-41.1-37.6-73.5-79.3-75.2c-1.4,2.4-2.2,5.1-2.2,8
			c-0.1,5.7,1.4,12.5,6.3,19.7c0.7,1,1.5,2,2.4,2.8c5.1,4.8,17.8,10.8,25.5,27.2c1.9,4,4.3,18.3,1.3,23.7c-2.2,4-0.5,15.3,0.6,20.7
			c0.8,4.1,0.1,8.3-2.1,11.9c-1.8,2.8-4.7,5.6-9.5,7c-2.6,0.8-4.9,2.2-6.9,4l-6.5,5.9c-2.5,2.3-5.7,3.8-9,4.3
			c-5.9,0.9-15,2.2-17.2,2.6c-2.5,0.5-15.4,10.9-19.1,21.3c-0.4-0.2-0.7-0.3-1.1-0.5l-0.1,0c0.5,2.4,1.2,3.9,2,4.5
			c2.5,2.2,5.5,1,9.6,2.8c2.2,0.9,3.6,2.3,4.5,3.2c1.7,2.8,1.3,1.4,2.9,4.1c0.8,1.3,2.2,2.2,3.8,2.2c1.9,0.1,3.5,0,4.7,0
			c2.1-0.1,2.6-0.2,3-0.3c3.1-1,5.4-3.9,5.4-3.9s8.4,0.3,10.2-0.5c3.3-1.5,12.8-7.6,15.6-9.3c22-7.7,39.7-24.4,48.8-45.7v0.5
			c0,0,11.7-14.6,11.3-19.6C371.8,186.2,377.1,182.6,376.1,178.2z"/>
		<path class="st3" d="M270.5,232.6c2.2-0.4,11.3-1.8,17.2-2.6c3.4-0.5,6.5-2,9-4.3l6.5-5.9c2-1.8,4.3-3.2,6.9-4
			c4.9-1.4,7.8-4.2,9.5-7c2.2-3.5,2.9-7.8,2.1-11.9c-1-5.4-2.8-16.7-0.6-20.7c3-5.3,0.5-19.7-1.3-23.7
			c-7.7-16.4-20.3-22.4-25.5-27.2c-0.9-0.9-1.7-1.8-2.4-2.8c-5-7.2-6.4-14-6.3-19.7c0.1-2.9,0.9-5.6,2.2-8c-1.1,0-2.2-0.1-3.3-0.1
			c-27.2,0-51.4,13.1-66.6,33.4c-3.5,0.4-6.9,0.9-9.1,1.5c-5.8,1.6-3.1,3.2-3.5,6.5c0,0-0.2,1.7-1.3,3.1c-2.4,3.4-6.8,1.9-8,4
			c-1.2,2.2,2.4,5.8,6.8,12.3c0.4,0.6,0.8,1.2,1.2,1.8c-1.6,6.5-2.5,13.3-2.5,20.3c0,33.7,20,62.6,48.8,75.6
			c0.4,0.2,0.7,0.3,1.1,0.5C255.1,243.5,268,233.1,270.5,232.6z"/>
	</g>
	<path class="st5" d="M247.3,179.9c-0.5,0-0.9-0.4-0.9-0.9c-0.2-3.9-0.3-20.1,9.4-19.8c9.9,0.3,9.3,13.3,2.5,14.2
		c-2.1,0.3-3.9,1.4-5.3,3l-1,1.2C250.9,179.1,249.2,179.9,247.3,179.9L247.3,179.9z"/>
	<path class="st5" d="M223.3,218.9c-0.8-2.5,1.1-5,3.7-5c1.3,0,2.7,0.3,4,1.1c4,2.5,15.3,10.2,5.8,16.5
		C229.7,236.1,225.2,225.1,223.3,218.9z"/>
	<path class="st5" d="M358,169.6c0,0,6.5,41.2-21,55.7C337,225.2,356.5,210.4,358,169.6z"/>
	<path class="st6" d="M241.2,53.5c0,0-0.3-1.9,1.3-2.8c2.3-1.3,3.8,0.5,3.8,0.5l-1.2,3.9L241.2,53.5z"/>
	<path class="st6" d="M243.9,55.6c-0.2-1-0.1-1.7,0.1-2.1c0.4-0.9,1.2-1.2,1.4-2.1c0.1-0.5-0.5-0.9-0.3-1.2c0.4-0.5,1.6,0.2,2.5,0.7
		c1.1,0.6,1.8,1.4,2.1,1.9l-0.7,3.6L243.9,55.6z"/>
	<path class="st7" d="M244,53.4c0.4-0.9,1.2-1.2,1.4-2.1c0.1-0.5-0.5-0.9-0.3-1.2c0.2-0.2,0.6-0.2,1.1,0c-0.7-0.3-1.3-0.5-1.6-0.2
		c-0.2,0.3,0.4,0.7,0.3,1.2c-0.2,0.9-1,1.2-1.4,2.1c-0.2,0.4-0.4,1.1-0.1,2.1l0.4,0.1C243.7,54.5,243.9,53.8,244,53.4z"/>
	<path class="st6" d="M243.9,57.9l-3.4-0.5c-0.3-0.3-0.6-0.5-0.7-0.8c-0.8-1.4-0.3-3.1,0.2-4c0.1-0.3,0.5-0.4,0.8-0.2
		c0.3,0.2,0.6,0.4,1.1,0.6c1.5,0.6,2.5,0.1,3.6,0.5c0.7,0.3,1.7,1,2.4,3.1L243.9,57.9z"/>
	<path class="st7" d="M240,52.7c0.1-0.3,0.5-0.4,0.8-0.2c0.3,0.2,0.6,0.4,1.1,0.6c1.5,0.6,2.5,0.1,3.6,0.5c0.7,0.2,1.5,0.9,2.2,2.7
		l0.2-0.1c-0.7-2.1-1.7-2.8-2.4-3.1c-1.1-0.4-2.1,0.1-3.6-0.5c-0.4-0.2-0.8-0.4-1.1-0.6c-0.3-0.2-0.7-0.1-0.8,0.2
		c-0.3,0.6-0.6,1.6-0.6,2.6C239.5,54,239.8,53.2,240,52.7z"/>
	<path class="st7" d="M249.7,51c-0.2-0.2-1.4-0.8-1.6-0.9c-0.6-0.2-1-0.3-1.3,0c-0.4,0.4,0.5,1.5,0.4,3.1c-0.1,0.9-0.5,1.6-0.8,2.1
		c-0.7,1.1-1.6,1.8-2.1,2.2c1.8,2.2,3.6,4.4,5.4,6.6l0.1-0.1c-1.7-2-3.3-4.1-5-6.1c0.5-0.4,1.4-1.1,2.1-2.2c0.3-0.6,0.7-1.2,0.8-2.1
		c0.2-1.7-0.8-2.7-0.4-3.1"/>
	<path class="st6" d="M254.3,55.7c0.4,1.1,0.6,2.1,0.7,2.5l-4.9,6.2c-1.8-2.2-3.6-4.4-5.4-6.6c0.5-0.4,1.4-1.1,2.1-2.2
		c0.3-0.6,0.7-1.2,0.8-2.1c0.2-1.7-0.8-2.7-0.4-3.1c0.1-0.1,0.2-0.1,0.3-0.1c0,0,5.8,3.9,4.7,7.4c0,0,2-0.9,1.8-1.9L254.3,55.7z"/>
	<path class="st7" d="M250,51.3c0.3,0.2-1.4-0.8-1.6-0.9c-0.6-0.2-1-0.3-1.3,0c-0.4,0.4,0.5,1.5,0.4,3.1c-0.1,0.9-0.5,1.6-0.8,2.1
		c-0.7,1.1-1.6,1.8-2.1,2.2c1.8,2.2,3.6,4.4,5.4,6.6l0.1-0.1c-1.7-2-3.3-4.1-5-6.1c0.5-0.4,1.4-1.1,2.1-2.2c0.3-0.6,0.7-1.2,0.8-2.1
		c0.2-1.7-0.8-2.7-0.4-3.1C247.6,50.7,248.1,50.1,250,51.3z"/>
	<path class="st6" d="M240.4,61.8c-0.5-0.3-0.8-0.7-1.1-1c-1.3-1.7-1.6-4-0.9-5.7c0.2-0.4,0.4-0.9,0.8-1c0.7-0.2,1.2,1,2.3,1.7
		c1.6,1,2.5-0.1,4.5,0.7c0.5,0.2,2.7,1.1,3.6,3.5c0.8,2.2-0.2,4.2-0.4,4.6L240.4,61.8z"/>
	<path class="st7" d="M238.4,55.2c0.2-0.4,0.4-0.9,0.8-1c0.7-0.2,1.2,1,2.3,1.7c1.6,1,2.5-0.1,4.5,0.7c0.5,0.2,2.7,1.1,3.6,3.5
		c0.2,0.5,0.3,1,0.3,1.5c0-0.6,0-1.3-0.3-2c-0.8-2.4-3.1-3.3-3.6-3.5c-2-0.8-2.9,0.3-4.5-0.7c-1.1-0.7-1.6-1.8-2.3-1.7
		c-0.4,0.1-0.6,0.5-0.8,1c-0.3,0.7-0.4,1.5-0.3,2.3C238.1,56.3,238.2,55.7,238.4,55.2z"/>
	<path class="st6" d="M237.5,59.5c0-0.7,0.1-1,0.3-1.1c0.8-0.7,2.5,1.1,5.9,2c2.3,0.7,2.8,0.2,4.4,0.9c2,0.9,3.2,2.5,3.9,3.8
		c-1,1.7-2.1,3.5-3.1,5.2l-2.4,0.4c-1.8,0.1-3-0.4-3.8-0.7C239.4,68.3,237.4,64.2,237.5,59.5z"/>
	<path class="st7" d="M237.8,58.4c0.8-0.7,2.5,1.1,5.9,2c2.3,0.7,2.8,0.2,4.4,0.9c1.8,0.8,3,2.2,3.7,3.4c0.1-0.1,0.2-0.3,0.2-0.4
		c-0.7-1.2-1.9-2.9-3.9-3.8c-1.6-0.7-2-0.2-4.4-0.9c-3.4-0.9-5.1-2.7-5.9-2c-0.2,0.1-0.4,0.4-0.3,1.1c0,0.2,0,0.3,0,0.5
		C237.5,58.7,237.7,58.5,237.8,58.4z"/>
	<path class="st6" d="M247.1,71.3c-1.1-0.9-1.3-2-1.4-2.8c-0.5-3.9,2.7-7.1,3.1-7.5c1-1,1.2-0.8,2.9-2.3c1.2-1,2.1-2,2.8-2.8
		c0.3-0.3,0.8-0.2,1,0.2c0.2,0.6,0.4,1.3,0.6,2.2c0.3,1.7,0.4,3.6,0.1,5.7c-0.4,2.7-2.1,4.8-4.3,5.1c-0.3,0.5-0.6,1-0.8,1.4
		C249.6,71.6,248,72.1,247.1,71.3z"/>
	<path class="st8" d="M253.5,83.9c-2.7,2.6-3.3,5.7-3.6,6.1h-0.5c0.4-0.4,1-3.4,3.6-6.1H253.5z"/>
	<path class="st8" d="M253,84.2c0,0-1.7-6.2,6.6-10.2C259.6,74,259.4,84.7,253,84.2z"/>
	<path class="st8" d="M250.1,98.2c0,0-3.9-4.3-7.1-6.1v0.5c3.1,1.8,7.1,6.1,7.1,6.1V98.2z"/>
	<path class="st8" d="M253,103.7c0,0-3.5-7.3-2.3-16.7c1.2-9.4,1.2-14.3-0.3-16.5l-1.8,0.3c1.4,2.3,1.4,6.8,0.2,16.2
		c-1.2,9.4,2.3,16.7,2.3,16.7H253z"/>
	<path class="st8" d="M243.5,92.6c0,0,0.4-5.5-6.2-5.1C237.2,87.5,236.9,92.7,243.5,92.6z"/>
	<path class="st8" d="M248.9,72.2l2.1-0.6c0.5-0.1,0.8-0.5,1-0.9l0.5-1.8l-6.1,1.6l1.1,1.2C247.8,72.2,248.4,72.3,248.9,72.2z"/>
	<path class="st7" d="M241.4,59.3"/>
	<path class="st7" d="M245.8,68.7c-0.5-3.9,2.8-6.4,3.2-6.8c1-1,1.1-1,2.9-2.3c1.6-1.1,2-2.7,2.7-3.5c0.2-0.3,0.7-0.1,0.9,0.1
		c0-0.1,0-0.2-0.1-0.3c0,0,0,0,0,0c-0.1-0.1-0.1-0.2-0.1-0.2c0-0.1-0.2-0.4-0.6-0.6c-0.2-0.2-0.8-0.4-1-0.3
		c-0.1,0.1,0.1,0.3,0.1,0.6c0.1,0.8-0.7,1.6-2.2,2.9c-0.2,0.2-0.4,0.4-0.5,0.4c-0.2,0.2-0.4,0.3-0.7,0.5c-0.7,0.5-1,0.6-1.7,1.3
		c-0.4,0.4-3.6,3.6-3.1,7.5c0.1,0.5,0.2,1.2,0.5,1.9C245.9,69.5,245.8,69,245.8,68.7z"/>
	<path class="st7" d="M247.6,50.2c0,0,5.9,3.9,4.7,7.4c0,0,2-0.9,1.8-1.9S249.4,49.8,247.6,50.2z"/>
	<path class="st7" d="M247.5,50.7c0,0,0-0.6,1.7,0.8l0.1-0.5l-1.6-0.7l-0.3,0.2L247.5,50.7z"/>
	<path class="st5" d="M255.4,113.9c-0.2-0.3-12.6,3.2-23.6,13.5c-14.8,13.8-17.3,30.8-17.3,30.8c2.5-7.7,7-17.9,15.8-27.1
		C241.9,118.9,255.6,114.3,255.4,113.9z"/>
	<path class="st5" d="M223.1,131.6c-0.1,0-7.8,8.6-11.7,21.5c-1.8,6.1-2,10.3-2,10.3c0.6-2.3,1.4-5.5,2.6-9.3
		c1-3.1,2.5-7.5,5.2-12.8C220.3,135.1,223.1,131.6,223.1,131.6z"/>
</g>
</svg>
